<?xml version="1.0" encoding="utf-8"?>
<svg xmlns="http://www.w3.org/2000/svg" width="837.943" height="617.31" viewBox="0 0 837.943 617.31">
  <g id="event-management" transform="translate(-753.367 -175.531)">
    <g id="MAIN_OBJECTS" data-name="MAIN OBJECTS" transform="translate(738.302 235.346)">
      <g id="Group_67" data-name="Group 67" transform="translate(0 0)">
        <path id="Path_200" data-name="Path 200" d="M1354.588,443.366c12.094,34.839,107.145,30.108,191.9,25.889,113.434-5.646,237.923-11.842,253.707-66.231,10.383-35.778-27.146-89.406-67.85-97.513-44.825-8.927-59.144,44.2-128.687,60.191-77.851,17.9-112.261-36.636-177.444-10.678C1382.591,372.393,1345.665,417.661,1354.588,443.366Z" transform="translate(-1203.698 -271.552)" fill="#e6effc"/>
        <path id="Path_201" data-name="Path 201" d="M1189.163,859.27c-30.145-231.171,8.461-307.962,53.179-332.667,96.531-53.33,255.276,117.4,384.121,44.118,53.6-30.485,59.293-78.892,132.139-102.26,50.281-16.129,109.28-12.864,149.722,7.982,91.348,47.087,135.6,208.4,69.144,382.934Z" transform="translate(-1163.401 -307.002)" fill="#e6effc" opacity="0.65"/>
        <g id="Group_39" data-name="Group 39" transform="translate(740.016 371.176)">
          <path id="Path_202" data-name="Path 202" d="M2160.762,929.208a236.192,236.192,0,0,0,5.113-31.869c.337-3.7.577-7.51-.466-11.08-1.411-4.828-4.981-8.662-8.236-12.5-4.859-5.727-9.292-11.954-11.889-19-5.31-14.417-2.421-30.57-5.666-45.587-1.465-6.781-4.163-13.232-5.965-19.932s-2.677-13.927-.475-20.506c-10.1,7.833-12.988,21.946-12.483,34.721s3.654,25.469,2.6,38.211c-.665,8.043-2.994,16.144-1.413,24.058,1.467,7.337,6.187,13.779,7.219,21.19.937,6.722-1.252,13.7.374,20.288s6.762,11.646,11.673,16.33c2.625,2.5,5.388,5.088,8.866,6.116,3.553,1.05,7.578.377,10.852,2.113" transform="translate(-2120.64 -749.758)" fill="#a4d2ff"/>
          <path id="Path_203" data-name="Path 203" d="M2134.151,825.6c0,1.282.026,2.563.056,3.844s.063,2.562.105,3.842c.088,2.561.193,5.12.336,7.677s.3,5.112.49,7.665.4,5.1.651,7.65l.19,1.91.206,1.907c.133,1.273.288,2.542.432,3.813l.24,1.9.12.951.131.95.262,1.9.284,1.9c.75,5.057,1.666,10.088,2.792,15.07.071.312.134.624.208.935l.221.931.443,1.863.479,1.854.239.926.259.923,1.041,3.691.261.923c.086.308.186.612.278.918l.559,1.834.556,1.836.278.917.3.912,1.194,3.645c.193.61.415,1.21.624,1.814l.634,1.81.629,1.812.664,1.8.665,1.8c.112.3.219.6.334.9l.349.893.7,1.787.348.894c.115.3.231.6.353.893l1.449,3.554,1.51,3.529.777,1.756c.261.584.512,1.173.785,1.752.538,1.162,1.068,2.328,1.623,3.481s1.114,2.307,1.684,3.453,1.154,2.288,1.773,3.411c-.675-1.09-1.311-2.2-1.945-3.319s-1.239-2.248-1.833-3.385-1.175-2.281-1.755-3.426c-.294-.571-.565-1.153-.848-1.728l-.84-1.733-1.614-3.5-1.551-3.525c-1-2.364-1.986-4.737-2.908-7.134l-.7-1.794-.668-1.807-.66-1.81c-.217-.6-.447-1.2-.649-1.814l-1.242-3.648-.311-.912-.29-.919-.581-1.837-.578-1.839c-.094-.307-.195-.612-.283-.921l-.266-.926-1.061-3.7-.263-.927-.246-.934-.49-1.867-.454-1.875-.227-.939c-.075-.312-.142-.627-.212-.941a217.778,217.778,0,0,1-4.4-30.5c-.054-.639-.1-1.28-.142-1.92s-.094-1.28-.131-1.921l-.119-1.922c-.038-.64-.066-1.282-.1-1.922q-.183-3.846-.279-7.694c-.051-2.565-.081-5.131-.061-7.7.011-1.282.026-2.565.056-3.846S2134.087,826.884,2134.151,825.6Z" transform="translate(-2123.709 -762.87)" fill="#f3f8ff"/>
          <path id="Path_204" data-name="Path 204" d="M2189.411,935.556a203.738,203.738,0,0,1,1.865-27.785c.433-3.18.968-6.426,2.535-9.226,2.12-3.786,5.864-6.32,9.342-8.916,5.194-3.876,10.126-8.255,13.672-13.678,7.253-11.1,7.948-25.235,13.581-37.235,2.544-5.418,6.06-10.321,8.87-15.605s4.944-11.192,4.366-17.15c6.98,8.541,6.675,20.965,3.78,31.609s-8,20.709-9.577,31.626c-1,6.891-.6,14.154-3.465,20.5-2.652,5.885-7.868,10.389-10.169,16.42-2.087,5.471-1.6,11.761-4.238,16.986s-7.937,8.485-12.974,11.473c-2.691,1.6-5.515,3.236-8.638,3.428-3.191.2-6.445-1.149-9.533-.323" transform="translate(-2136.361 -758.341)" fill="#a4d2ff"/>
          <path id="Path_205" data-name="Path 205" d="M2237.563,854.305c-.19,1.09-.4,2.177-.615,3.262s-.451,2.167-.686,3.249c-.472,2.162-.989,4.315-1.521,6.465s-1.116,4.286-1.71,6.419c-.151.533-.3,1.067-.451,1.6l-.469,1.594c-.155.532-.32,1.061-.479,1.591s-.32,1.06-.489,1.588a186.158,186.158,0,0,1-9.582,24.809c-.119.251-.237.5-.361.751l-.373.746-.746,1.49-.774,1.477-.387.738-.4.729c-1.078,1.938-2.127,3.893-3.272,5.793l-.845,1.432-.423.716-.438.707-1.754,2.826c-.288.474-.6.933-.9,1.4l-.907,1.393-.913,1.389-.94,1.372c-1.243,1.836-2.53,3.64-3.835,5.432l-1.993,2.66-2.039,2.625-1.046,1.291c-.35.429-.692.865-1.051,1.287-.712.848-1.413,1.705-2.146,2.535s-1.462,1.664-2.2,2.484-1.507,1.623-2.288,2.406c.734-.828,1.439-1.68,2.141-2.534s1.4-1.713,2.075-2.585,1.357-1.744,2.031-2.619c.34-.435.663-.883.995-1.324l.99-1.328,1.946-2.679,1.9-2.711,1.862-2.737.465-.685c.154-.229.3-.461.454-.692l.9-1.386.9-1.386.878-1.4.881-1.4c.292-.468.594-.929.874-1.4l1.705-2.835.425-.709.411-.718.821-1.436.823-1.434c.137-.239.278-.476.411-.717l.4-.726,1.587-2.9.4-.726.379-.732.76-1.464.732-1.48.366-.739c.122-.247.235-.5.355-.746,1.912-3.967,3.654-8.018,5.265-12.123l.606-1.539.589-1.545.294-.773.286-.776.571-1.553c.368-1.039.745-2.077,1.1-3.12l.545-1.563.532-1.567q1.055-3.138,2.037-6.3t1.909-6.346c.621-2.121,1.209-4.25,1.785-6.384q.431-1.6.843-3.208C2237.036,856.453,2237.309,855.382,2237.563,854.305Z" transform="translate(-2136.984 -769.487)" fill="#f3f8ff"/>
          <path id="Path_206" data-name="Path 206" d="M2170.074,922.752a259.643,259.643,0,0,1-9.146-34.3c-.781-4.017-1.468-8.154-.724-12.177,1.006-5.44,4.486-10.034,7.62-14.594,4.68-6.808,8.838-14.117,10.893-22.119,4.2-16.368-.756-33.722,1.122-50.517.848-7.584,3.081-14.943,4.306-22.475s1.378-15.539-1.764-22.492c11.93,7.446,16.658,22.569,17.528,36.6s-1.16,28.279,1.411,42.1c1.623,8.727,5.075,17.334,4.226,26.17-.787,8.192-5.235,15.767-5.539,23.992-.276,7.46,2.9,14.851,1.851,22.242s-6.1,13.5-10.955,19.171c-2.593,3.031-5.329,6.169-9.02,7.681-3.772,1.545-8.251,1.257-11.641,3.521" transform="translate(-2129.689 -744.072)" fill="#8dbffb"/>
          <path id="Path_207" data-name="Path 207" d="M2193.371,806c.208,1.394.392,2.793.569,4.192s.329,2.8.483,4.2c.3,2.805.551,5.616.777,8.429s.392,5.631.54,8.45c.034.7.074,1.41.1,2.114l.082,2.116c.03.7.045,1.411.068,2.116s.045,1.411.057,2.117c.073,2.823.089,5.647.074,8.472l-.027,2.119-.014,1.059-.025,1.06-.052,2.118-.075,2.118q-.322,8.472-1.311,16.909c-.042.351-.079.7-.127,1.053l-.143,1.052-.288,2.1-.328,2.1-.164,1.049-.186,1.043-.747,4.173-.187,1.043c-.062.347-.138.693-.207,1.039l-.426,2.076-.429,2.075-.216,1.038-.237,1.033-.951,4.13c-.152.69-.336,1.372-.505,2.057l-.52,2.054-.528,2.052-.567,2.041c-.74,2.726-1.548,5.433-2.379,8.131l-1.3,4.031-1.371,4.007-.723,1.99c-.244.662-.475,1.329-.732,1.987-.505,1.318-.995,2.641-1.532,3.946-.521,1.311-1.068,2.612-1.621,3.91s-1.136,2.583-1.75,3.853c.555-1.3,1.063-2.612,1.569-3.927s1-2.635,1.467-3.964.934-2.658,1.4-3.988c.235-.663.444-1.336.666-2l.659-2.007,1.264-4.03,1.2-4.05c.1-.337.2-.676.289-1.016l.281-1.017.567-2.034.284-1.016c.092-.339.177-.681.266-1.021l.528-2.044.529-2.044.49-2.053.493-2.051c.162-.685.338-1.366.482-2.054l.9-4.123.226-1.03.2-1.036.4-2.071.408-2.07c.067-.345.142-.689.2-1.035l.182-1.039.729-4.156.18-1.039.159-1.041.318-2.081.278-2.089.138-1.044c.046-.348.081-.7.124-1.046.677-5.578,1.118-11.188,1.374-16.808l.1-2.107.074-2.108.036-1.054.026-1.055.049-2.11c.015-1.407.044-2.814.045-4.221l.011-2.111-.006-2.111q-.026-4.223-.149-8.445t-.327-8.443c-.134-2.814-.307-5.626-.5-8.438-.1-1.406-.2-2.812-.321-4.216S2193.514,807.4,2193.371,806Z" transform="translate(-2133.51 -758.35)" fill="#f3f8ff"/>
        </g>
        <g id="Group_40" data-name="Group 40" transform="translate(23.081 372.118)">
          <path id="Path_208" data-name="Path 208" d="M1229.005,930.433a236.057,236.057,0,0,0,5.113-31.869c.337-3.7.577-7.51-.466-11.08-1.411-4.828-4.981-8.662-8.236-12.5-4.859-5.728-9.292-11.955-11.889-19-5.31-14.417-2.421-30.57-5.666-45.587-1.465-6.781-4.162-13.232-5.964-19.932s-2.678-13.927-.476-20.506c-10.1,7.833-12.987,21.946-12.483,34.721s3.654,25.47,2.6,38.211c-.665,8.043-2.994,16.144-1.413,24.059,1.467,7.337,6.187,13.778,7.22,21.189.936,6.722-1.253,13.7.374,20.288s6.762,11.646,11.674,16.33c2.624,2.5,5.388,5.088,8.866,6.116,3.554,1.05,7.578.377,10.853,2.113" transform="translate(-1188.884 -750.983)" fill="#a4d2ff"/>
          <path id="Path_209" data-name="Path 209" d="M1202.394,826.829c0,1.282.026,2.563.056,3.844s.063,2.561.105,3.842c.088,2.561.193,5.12.336,7.678s.3,5.112.49,7.665.4,5.1.651,7.65l.19,1.91.206,1.908c.132,1.272.289,2.542.432,3.813l.24,1.9.12.951.131.95.262,1.9.284,1.9c.75,5.058,1.666,10.089,2.792,15.07.071.312.134.625.209.935l.221.931.443,1.863.479,1.854.239.926.259.923,1.041,3.691.261.923c.086.308.185.612.278.918l.559,1.834.556,1.836.278.917.3.912,1.193,3.645c.193.61.415,1.21.624,1.814l.634,1.81.629,1.812.664,1.8.665,1.8c.112.3.219.6.334.9l.349.893.7,1.787.349.894c.114.3.23.6.352.893l1.45,3.554,1.51,3.529.777,1.756c.262.584.513,1.173.785,1.752.538,1.162,1.068,2.328,1.624,3.482s1.114,2.306,1.684,3.453,1.155,2.288,1.773,3.41c-.675-1.09-1.311-2.2-1.945-3.319s-1.239-2.247-1.833-3.384-1.175-2.281-1.755-3.426c-.294-.571-.565-1.152-.848-1.728l-.84-1.733-1.614-3.5-1.551-3.525c-1-2.364-1.986-4.737-2.908-7.134l-.7-1.794-.668-1.807-.66-1.81c-.217-.6-.447-1.2-.649-1.814l-1.242-3.648-.311-.912-.29-.919-.581-1.837-.578-1.839c-.094-.307-.195-.612-.283-.92l-.265-.926-1.062-3.706-.263-.927-.246-.934-.49-1.867-.454-1.876-.227-.938c-.075-.313-.142-.628-.212-.942a217.8,217.8,0,0,1-4.4-30.5c-.054-.639-.1-1.28-.141-1.921s-.094-1.28-.131-1.92l-.119-1.922c-.038-.64-.066-1.282-.1-1.922q-.183-3.846-.279-7.694c-.051-2.565-.081-5.131-.061-7.7.011-1.283.026-2.565.056-3.847S1202.331,828.109,1202.394,826.829Z" transform="translate(-1191.952 -764.095)" fill="#f3f8ff"/>
          <path id="Path_210" data-name="Path 210" d="M1257.654,936.781A203.766,203.766,0,0,1,1259.518,909c.433-3.18.968-6.426,2.535-9.226,2.12-3.786,5.864-6.32,9.342-8.916,5.194-3.876,10.126-8.255,13.672-13.678,7.253-11.1,7.948-25.235,13.581-37.235,2.544-5.418,6.059-10.32,8.87-15.605s4.945-11.192,4.366-17.15c6.98,8.541,6.676,20.965,3.78,31.609s-8,20.709-9.577,31.626c-1,6.891-.6,14.154-3.466,20.5-2.652,5.885-7.868,10.389-10.169,16.42-2.087,5.471-1.6,11.761-4.238,16.986s-7.938,8.485-12.974,11.473c-2.691,1.6-5.515,3.236-8.638,3.428-3.191.2-6.445-1.149-9.533-.323" transform="translate(-1204.604 -759.566)" fill="#a4d2ff"/>
          <path id="Path_211" data-name="Path 211" d="M1305.806,855.53c-.19,1.09-.4,2.177-.615,3.262s-.451,2.167-.686,3.249c-.472,2.162-.989,4.315-1.521,6.465s-1.116,4.286-1.71,6.419c-.151.533-.3,1.067-.452,1.6l-.469,1.594c-.155.532-.32,1.061-.479,1.591s-.32,1.061-.489,1.589a186.22,186.22,0,0,1-9.582,24.809c-.119.25-.237.5-.361.75l-.372.746-.746,1.49-.774,1.476-.387.738-.4.729c-1.078,1.938-2.127,3.893-3.272,5.793l-.845,1.432-.423.716-.438.707-1.754,2.826c-.288.474-.6.933-.9,1.4l-.907,1.393-.913,1.389-.94,1.372c-1.243,1.836-2.53,3.64-3.835,5.431l-1.993,2.66-2.039,2.625-1.046,1.292c-.35.429-.692.864-1.05,1.286-.712.848-1.413,1.705-2.147,2.535s-1.462,1.664-2.2,2.484-1.507,1.622-2.288,2.405c.733-.828,1.438-1.68,2.14-2.534s1.4-1.713,2.075-2.584,1.357-1.744,2.031-2.618c.34-.435.663-.883.995-1.325l.989-1.328,1.946-2.679,1.9-2.712,1.862-2.737.465-.684c.154-.229.3-.462.454-.693l.9-1.386.9-1.386.878-1.4.881-1.4c.292-.468.594-.929.874-1.4l1.705-2.835.425-.709.411-.718.821-1.436.823-1.434c.137-.239.279-.476.411-.717l.4-.726,1.587-2.9.4-.726.379-.732.76-1.464.732-1.48.365-.74c.122-.247.235-.5.355-.746,1.911-3.967,3.653-8.018,5.265-12.123l.607-1.539.589-1.545.294-.773.286-.776.571-1.553c.368-1.039.745-2.076,1.1-3.12l.545-1.563.532-1.567q1.055-3.138,2.037-6.3t1.909-6.346c.621-2.121,1.21-4.25,1.785-6.384q.431-1.6.843-3.208C1305.279,857.678,1305.552,856.607,1305.806,855.53Z" transform="translate(-1205.227 -770.712)" fill="#f3f8ff"/>
          <path id="Path_212" data-name="Path 212" d="M1238.317,923.977a259.6,259.6,0,0,1-9.146-34.3c-.781-4.016-1.468-8.154-.724-12.177,1.006-5.44,4.486-10.034,7.62-14.594,4.68-6.808,8.838-14.117,10.893-22.119,4.2-16.368-.756-33.722,1.122-50.517.848-7.584,3.081-14.943,4.306-22.475s1.379-15.538-1.764-22.492c11.929,7.446,16.658,22.569,17.528,36.6s-1.16,28.279,1.411,42.1c1.624,8.728,5.075,17.334,4.226,26.17-.787,8.192-5.235,15.767-5.539,23.992-.276,7.46,2.9,14.851,1.851,22.242s-6.1,13.5-10.955,19.171c-2.593,3.032-5.329,6.169-9.02,7.681-3.772,1.545-8.251,1.257-11.641,3.521" transform="translate(-1197.932 -745.297)" fill="#8dbffb"/>
          <path id="Path_213" data-name="Path 213" d="M1261.614,807.226c.209,1.394.392,2.793.569,4.192s.329,2.8.483,4.2c.3,2.805.551,5.616.777,8.429s.392,5.631.54,8.45c.034.7.074,1.41.1,2.115l.082,2.116c.03.706.045,1.411.068,2.117s.046,1.411.057,2.117c.073,2.823.089,5.648.074,8.472l-.027,2.118-.014,1.06-.025,1.059-.052,2.118-.075,2.118q-.322,8.472-1.31,16.909c-.042.351-.079.7-.127,1.053l-.143,1.051-.288,2.1-.328,2.1-.164,1.049-.185,1.043-.748,4.173-.187,1.043c-.062.347-.139.693-.207,1.039l-.426,2.076-.429,2.075-.215,1.038-.237,1.033-.951,4.13c-.152.69-.336,1.372-.506,2.057l-.52,2.054-.528,2.051-.567,2.041c-.739,2.726-1.548,5.433-2.379,8.131l-1.3,4.031-1.371,4.007-.723,1.991c-.244.662-.475,1.329-.731,1.987-.506,1.318-1,2.642-1.533,3.947-.521,1.311-1.068,2.612-1.62,3.91s-1.137,2.583-1.751,3.853c.555-1.3,1.063-2.612,1.569-3.927s1-2.635,1.467-3.964.935-2.658,1.4-3.988c.235-.663.444-1.337.666-2l.659-2.007,1.264-4.03,1.2-4.05c.1-.337.2-.676.289-1.016l.282-1.017.567-2.034.284-1.016c.092-.339.177-.681.266-1.021l.528-2.044.529-2.043.489-2.054.493-2.051c.162-.685.338-1.366.482-2.054l.9-4.123.225-1.03.2-1.036.4-2.071.408-2.07c.067-.345.142-.689.2-1.035l.182-1.039.729-4.156.18-1.039.159-1.041.318-2.082.278-2.089.139-1.044c.046-.348.081-.7.124-1.046.677-5.578,1.118-11.188,1.373-16.808l.1-2.108.074-2.108.036-1.054.026-1.055.049-2.11c.016-1.407.044-2.814.045-4.221l.012-2.11-.006-2.111q-.027-4.223-.149-8.445t-.327-8.443c-.134-2.814-.307-5.626-.5-8.438-.1-1.406-.2-2.811-.321-4.216S1261.758,808.629,1261.614,807.226Z" transform="translate(-1201.753 -759.575)" fill="#f3f8ff"/>
        </g>
        <g id="Group_41" data-name="Group 41" transform="translate(557.88 472.581)">
          <path id="Path_214" data-name="Path 214" d="M1902.551,961.79A109.459,109.459,0,0,0,1904.925,947a13.858,13.858,0,0,0-.217-5.143c-.654-2.241-2.311-4.02-3.822-5.8a29.888,29.888,0,0,1-5.518-8.819c-2.464-6.692-1.123-14.189-2.63-21.158-.68-3.148-1.931-6.142-2.768-9.251s-1.243-6.464-.221-9.517c-4.69,3.636-6.028,10.186-5.794,16.115s1.7,11.822,1.207,17.735c-.309,3.733-1.39,7.494-.656,11.167.681,3.406,2.872,6.395,3.351,9.834.435,3.12-.582,6.359.174,9.417s3.138,5.405,5.418,7.58a10.716,10.716,0,0,0,4.115,2.838c1.65.487,3.517.175,5.037.98" transform="translate(-1883.93 -878.501)" fill="#a4d2ff"/>
          <path id="Path_215" data-name="Path 215" d="M1890.16,913.7c.024.595.048,1.19.078,1.784s.056,1.188.094,1.781l.051.89.056.89.057.889.067.889q.249,3.555.634,7.091l.092.884.108.882.212,1.764.246,1.759.12.88.141.876.279,1.752c.1.582.214,1.162.32,1.743.2,1.167.466,2.315.708,3.471.032.144.058.289.093.432l.107.429.212.858.212.858.106.429.118.427.474,1.711c.151.572.335,1.134.5,1.7l.253.85.127.425.136.422.539,1.692c.18.564.379,1.121.567,1.683l.283.842.3.836c.794,2.231,1.63,4.451,2.547,6.64.231.546.455,1.1.691,1.641s.475,1.088.719,1.63.49,1.083.742,1.621.509,1.076.776,1.608c-.333-.495-.639-1.006-.95-1.516s-.6-1.03-.889-1.553c-.586-1.04-1.126-2.1-1.667-3.169l-.776-1.614-.747-1.628c-.483-1.092-.956-2.19-1.4-3.3-.891-2.218-1.707-4.468-2.427-6.749-.377-1.136-.7-2.288-1.034-3.436l-.122-.432-.111-.436-.22-.873-.22-.873-.11-.436c-.036-.145-.065-.292-.1-.439-.24-1.174-.512-2.343-.7-3.526-.1-.59-.207-1.18-.3-1.771l-.254-1.777-.123-.889-.1-.891-.2-1.782-.159-1.786-.074-.893-.059-.894c-.17-2.382-.235-4.77-.255-7.155v-.894l.009-.895.011-.894c0-.3.016-.6.025-.894.016-.6.042-1.191.068-1.787S1890.109,914.3,1890.16,913.7Z" transform="translate(-1885.313 -884.587)" fill="#f3f8ff"/>
          <path id="Path_216" data-name="Path 216" d="M1915.849,964.736a94.475,94.475,0,0,1,.866-12.9,11.948,11.948,0,0,1,1.176-4.282c.984-1.757,2.722-2.933,4.336-4.138a25.8,25.8,0,0,0,6.345-6.349c3.366-5.15,3.689-11.712,6.3-17.282,1.18-2.515,2.812-4.791,4.117-7.243a14.34,14.34,0,0,0,2.027-7.96c3.239,3.963,3.1,9.73,1.754,14.67s-3.713,9.612-4.445,14.679c-.462,3.2-.281,6.57-1.608,9.516-1.231,2.732-3.652,4.822-4.72,7.621-.969,2.539-.741,5.458-1.967,7.884s-3.684,3.938-6.021,5.325a9.239,9.239,0,0,1-4.01,1.59c-1.48.091-2.991-.533-4.424-.149" transform="translate(-1891.227 -882.485)" fill="#a4d2ff"/>
          <path id="Path_217" data-name="Path 217" d="M1938.2,927.025c-.067.51-.153,1.017-.235,1.526s-.179,1.013-.278,1.518c-.048.252-.095.506-.147.758l-.159.755-.161.756-.169.753c-.469,2-.976,4-1.574,5.977l-.22.741-.234.738-.475,1.473-.509,1.462-.258.73-.275.724-.556,1.447c-.194.479-.4.955-.6,1.433-.388.959-.843,1.891-1.272,2.833-.055.117-.107.235-.166.351l-.177.346-.355.692-.355.693-.178.346-.187.339c-.507.9-1,1.808-1.538,2.69-1.051,1.778-2.176,3.512-3.36,5.2-.589.848-1.2,1.677-1.824,2.5l-.949,1.221-.972,1.2c-.666.787-1.331,1.574-2.03,2.331-.347.381-.7.755-1.058,1.127s-.723.733-1.1,1.082q.486-.6.953-1.21c.313-.407.626-.813.929-1.227l.911-1.238c.3-.414.594-.834.891-1.251,1.186-1.668,2.309-3.378,3.4-5.1l.412-.646.4-.654c.266-.436.539-.867.8-1.307l.777-1.319.2-.329.188-.333.376-.666c.247-.446.51-.883.747-1.335l.728-1.346.182-.336.172-.34.344-.679.344-.679.172-.34c.058-.113.108-.23.162-.345.427-.923.875-1.837,1.266-2.778.2-.467.409-.933.608-1.4l.574-1.417.289-.708.272-.716.549-1.429.523-1.44.263-.72.251-.724q1.019-2.892,1.929-5.829C1937.056,930.971,1937.637,929,1938.2,927.025Z" transform="translate(-1891.515 -887.658)" fill="#f3f8ff"/>
          <path id="Path_218" data-name="Path 218" d="M1906.874,958.793a120.547,120.547,0,0,1-4.245-15.921,15.265,15.265,0,0,1-.336-5.652c.467-2.525,2.082-4.657,3.537-6.773a32.892,32.892,0,0,0,5.056-10.267c1.951-7.6-.352-15.651.52-23.447.394-3.52,1.43-6.936,2-10.432s.639-7.211-.819-10.439c5.537,3.456,7.731,10.475,8.135,16.989s-.539,13.125.655,19.542c.754,4.051,2.356,8.045,1.961,12.147-.365,3.8-2.43,7.318-2.571,11.135-.128,3.462,1.344,6.893.859,10.323s-2.832,6.265-5.084,8.9a11.772,11.772,0,0,1-4.187,3.565c-1.751.717-3.829.583-5.4,1.634" transform="translate(-1888.129 -875.862)" fill="#8dbffb"/>
          <path id="Path_219" data-name="Path 219" d="M1917.686,904.6c.119.645.216,1.293.316,1.941s.185,1.3.265,1.948c.042.325.086.65.123.976l.108.978.107.977.1.979c.063.652.12,1.306.167,1.961s.1,1.308.143,1.963.075,1.31.109,1.966.05,1.311.075,1.967l.035.984.018.985.023,1.971-.023,1.972-.014.986-.037.986-.081,1.971c-.038.657-.09,1.313-.135,1.97-.075,1.314-.242,2.623-.375,3.934-.018.164-.032.328-.056.491l-.072.489-.143.979-.144.979-.072.489c-.027.162-.057.324-.086.485-.24,1.293-.461,2.59-.746,3.874q-.8,3.862-1.9,7.654c-.358,1.264-.743,2.52-1.148,3.77l-.631,1.866-.665,1.854c-.469,1.227-.939,2.452-1.458,3.658-.255.6-.522,1.2-.793,1.8s-.556,1.188-.861,1.768c.237-.611.462-1.226.68-1.842s.436-1.233.639-1.854.409-1.241.612-1.862.386-1.248.58-1.871l.559-1.876.526-1.884.5-1.891c.175-.628.32-1.263.48-1.9l.235-.95.217-.953c.142-.636.3-1.268.435-1.905l.4-1.912.1-.477.092-.48.184-.96c.118-.64.256-1.276.359-1.92l.329-1.924.083-.481.068-.482.137-.963.138-.963.068-.482c.023-.161.035-.323.055-.484.135-1.293.3-2.582.387-3.88.051-.649.11-1.3.155-1.945l.109-1.949.055-.975.033-.976.071-1.953.033-1.955.02-.978,0-.978c0-.652.008-1.3,0-1.957s-.02-1.3-.023-1.957-.026-1.3-.038-1.958c-.008-.326-.012-.652-.024-.979l-.035-.979-.028-.98-.041-.979-.041-.98-.048-.98c-.027-.653-.067-1.307-.1-1.96S1917.731,905.259,1917.686,904.6Z" transform="translate(-1889.903 -882.489)" fill="#f3f8ff"/>
        </g>
        <g id="Group_42" data-name="Group 42" transform="translate(254.348 470.486)">
          <path id="Path_220" data-name="Path 220" d="M1508.069,959.067a109.573,109.573,0,0,0,2.374-14.791,13.869,13.869,0,0,0-.217-5.142c-.655-2.241-2.312-4.021-3.823-5.8a29.905,29.905,0,0,1-5.518-8.82c-2.465-6.691-1.124-14.188-2.63-21.158-.68-3.147-1.932-6.142-2.768-9.251s-1.243-6.463-.22-9.517c-4.69,3.636-6.029,10.186-5.794,16.115s1.7,11.821,1.207,17.735c-.308,3.733-1.39,7.494-.656,11.166.681,3.406,2.872,6.4,3.351,9.835.435,3.12-.582,6.358.173,9.417s3.139,5.4,5.418,7.579a10.709,10.709,0,0,0,4.115,2.839c1.649.488,3.517.175,5.037.981" transform="translate(-1489.448 -875.779)" fill="#a4d2ff"/>
          <path id="Path_221" data-name="Path 221" d="M1495.677,910.981c.024.6.048,1.19.078,1.784s.056,1.188.095,1.782l.051.89.055.889.057.889.068.889q.249,3.554.634,7.09l.092.884.108.883.212,1.764.246,1.759.121.879.141.876.279,1.752c.1.583.214,1.163.321,1.744.2,1.166.465,2.315.707,3.47.032.144.058.29.094.432l.106.429.212.858.213.859.106.429.119.427.474,1.71c.152.572.335,1.135.5,1.7l.253.851.127.425.135.422.54,1.691c.18.564.379,1.121.566,1.684l.284.842.3.836c.794,2.232,1.63,4.452,2.547,6.641.23.546.455,1.1.691,1.64s.475,1.089.718,1.63.491,1.083.743,1.621.509,1.075.776,1.607c-.332-.495-.639-1.006-.949-1.516s-.6-1.03-.89-1.552c-.585-1.04-1.125-2.1-1.667-3.169l-.776-1.614-.748-1.628c-.482-1.093-.956-2.19-1.4-3.3-.891-2.218-1.706-4.468-2.426-6.749-.377-1.136-.7-2.288-1.034-3.436l-.123-.432-.11-.436-.22-.873-.22-.873-.11-.436c-.037-.146-.065-.293-.1-.439-.24-1.174-.512-2.344-.7-3.526-.1-.59-.207-1.18-.3-1.771l-.253-1.777-.123-.889-.1-.891-.2-1.782-.158-1.785-.075-.893-.059-.894c-.17-2.383-.235-4.77-.255-7.155v-.895l.01-.894.011-.894c0-.3.015-.6.025-.894.016-.6.042-1.192.068-1.787S1495.627,911.575,1495.677,910.981Z" transform="translate(-1490.831 -881.864)" fill="#f3f8ff"/>
          <path id="Path_222" data-name="Path 222" d="M1521.367,962.014a94.592,94.592,0,0,1,.865-12.9,11.968,11.968,0,0,1,1.177-4.283c.983-1.757,2.721-2.933,4.336-4.137a25.827,25.827,0,0,0,6.346-6.349c3.366-5.15,3.689-11.712,6.3-17.282,1.18-2.515,2.812-4.791,4.117-7.244a14.331,14.331,0,0,0,2.026-7.96c3.24,3.964,3.1,9.73,1.755,14.671s-3.713,9.611-4.445,14.679c-.463,3.2-.281,6.569-1.609,9.516-1.231,2.732-3.651,4.821-4.719,7.621-.97,2.539-.741,5.458-1.968,7.884s-3.684,3.938-6.022,5.325a9.247,9.247,0,0,1-4.009,1.591c-1.481.091-2.991-.533-4.425-.15" transform="translate(-1496.744 -879.763)" fill="#a4d2ff"/>
          <path id="Path_223" data-name="Path 223" d="M1543.715,924.3c-.067.511-.152,1.018-.234,1.526s-.18,1.013-.278,1.519c-.048.252-.095.506-.147.758l-.16.755-.16.756-.17.753c-.469,2-.976,4-1.574,5.976l-.221.742-.233.737-.476,1.473-.51,1.462-.258.73-.275.725-.556,1.447c-.193.479-.4.954-.595,1.432-.389.959-.843,1.891-1.272,2.833-.055.117-.108.235-.166.351l-.178.346-.355.693-.355.692-.177.346-.187.339c-.507.9-1,1.808-1.538,2.69q-1.577,2.667-3.361,5.2c-.588.848-1.2,1.678-1.823,2.5l-.95,1.221-.971,1.2c-.667.786-1.331,1.573-2.031,2.331-.347.38-.7.754-1.057,1.126s-.723.734-1.1,1.082q.487-.6.954-1.21c.312-.406.625-.813.929-1.227l.911-1.237c.3-.414.594-.835.891-1.251,1.185-1.668,2.309-3.378,3.4-5.1l.411-.646.4-.653c.265-.437.539-.867.8-1.307l.778-1.319.2-.329.188-.333.376-.666c.247-.446.51-.883.747-1.335l.727-1.346.182-.335.172-.34.344-.679.345-.68.172-.339c.058-.113.108-.231.162-.345.426-.923.875-1.836,1.266-2.777.2-.468.409-.933.607-1.4l.575-1.417.289-.709.272-.715.55-1.429.522-1.44.264-.719.25-.725q1.02-2.892,1.929-5.829C1542.574,928.249,1543.155,926.281,1543.715,924.3Z" transform="translate(-1497.033 -884.936)" fill="#f3f8ff"/>
          <path id="Path_224" data-name="Path 224" d="M1512.392,956.071a120.423,120.423,0,0,1-4.245-15.922,15.25,15.25,0,0,1-.336-5.652c.467-2.525,2.082-4.657,3.536-6.773a32.9,32.9,0,0,0,5.056-10.266c1.951-7.6-.351-15.652.521-23.447.393-3.52,1.43-6.937,2-10.432s.64-7.212-.819-10.439c5.537,3.456,7.731,10.474,8.135,16.989s-.539,13.125.655,19.542c.753,4.051,2.355,8.045,1.961,12.146-.365,3.8-2.43,7.318-2.571,11.135-.129,3.463,1.344,6.893.859,10.324s-2.832,6.264-5.084,8.9a11.79,11.79,0,0,1-4.187,3.565c-1.75.717-3.83.583-5.4,1.634" transform="translate(-1493.647 -873.14)" fill="#8dbffb"/>
          <path id="Path_225" data-name="Path 225" d="M1523.2,901.883c.118.645.215,1.293.316,1.941s.184,1.3.266,1.948c.042.325.085.65.123.976l.108.977.107.978.1.979c.062.653.119,1.307.166,1.961s.1,1.308.143,1.963.075,1.31.11,1.966.049,1.312.075,1.968l.035.984.018.985.023,1.971-.022,1.971-.014.986-.037.986-.081,1.972c-.038.656-.089,1.313-.134,1.97-.076,1.314-.242,2.623-.375,3.933-.019.164-.032.328-.056.492l-.072.489-.144.979-.143.979-.072.489c-.027.163-.057.324-.086.486-.24,1.293-.462,2.589-.746,3.873q-.8,3.863-1.9,7.654-.538,1.9-1.148,3.77l-.631,1.866-.665,1.854c-.469,1.227-.939,2.452-1.458,3.657-.255.6-.523,1.2-.793,1.8s-.556,1.188-.861,1.768c.237-.611.462-1.226.68-1.842s.435-1.233.639-1.854.409-1.241.611-1.862.386-1.247.58-1.87l.559-1.876.527-1.885.5-1.89c.175-.628.32-1.264.479-1.9l.235-.949.216-.953c.143-.636.3-1.268.435-1.905l.4-1.911.1-.478.092-.479.183-.96c.118-.64.257-1.276.359-1.92l.329-1.925.083-.481.068-.482.137-.963.137-.964.069-.482c.023-.161.035-.322.054-.484.136-1.292.3-2.581.387-3.88.052-.648.11-1.3.155-1.944l.109-1.95.055-.975.033-.976.072-1.953.033-1.955.019-.977,0-.979c0-.652.008-1.3,0-1.957s-.02-1.3-.022-1.957-.026-1.306-.038-1.958c-.009-.326-.012-.653-.025-.979l-.034-.979-.029-.98-.041-.979-.041-.979-.048-.979c-.027-.654-.068-1.307-.1-1.96S1523.248,902.537,1523.2,901.883Z" transform="translate(-1495.421 -879.767)" fill="#f3f8ff"/>
        </g>
        <path id="Path_226" data-name="Path 226" d="M1755.39,950.48H1644.57l5.875-67.948,2.058-23.809h95.076l2.027,23.809Z" transform="translate(-1270.864 -399.33)" fill="#70a2bf"/>
        <path id="Path_227" data-name="Path 227" d="M1751.367,882.532h-99.161l2.058-23.809h95.076Z" transform="translate(-1272.624 -399.33)" opacity="0.42"/>
        <path id="Path_228" data-name="Path 228" d="M1892.657,466.615V771.862a7.82,7.82,0,0,1-7.82,7.82H1393.627a12.323,12.323,0,0,1-12.333-12.333V462.1a7.82,7.82,0,0,1,7.82-7.82h491.21a12.334,12.334,0,0,1,12.333,12.333Z" transform="translate(-1210.164 -306.084)" fill="#517e9c"/>
        <rect id="Rectangle_44" data-name="Rectangle 44" width="457.483" height="263.335" rx="9.928" transform="translate(199.285 174.495)" fill="#fff"/>
        <path id="Path_229" data-name="Path 229" d="M1570.776,454.282l93.441,69.341s20.53-75.1-37.5-65.465C1615.079,460.091,1570.776,454.282,1570.776,454.282Z" transform="translate(-1253.85 -306.084)" opacity="0.22"/>
        <rect id="Rectangle_45" data-name="Rectangle 45" width="212.512" height="234.732" rx="12.669" transform="translate(425.129 188.63)" fill="#c7e7ff" opacity="0.49"/>
        <g id="Group_43" data-name="Group 43" transform="translate(528.152 207.433)">
          <rect id="Rectangle_46" data-name="Rectangle 46" width="60.644" height="5.131" rx="2.565" transform="translate(0)" fill="#b0e1ff"/>
          <rect id="Rectangle_47" data-name="Rectangle 47" width="60.644" height="5.131" rx="2.565" transform="translate(0 13.205)" fill="#b0e1ff"/>
          <rect id="Rectangle_48" data-name="Rectangle 48" width="60.644" height="5.131" rx="2.565" transform="translate(0 27)" fill="#b0e1ff"/>
          <rect id="Rectangle_49" data-name="Rectangle 49" width="60.644" height="5.131" rx="2.565" transform="translate(0 40.794)" fill="#b0e1ff"/>
          <rect id="Rectangle_50" data-name="Rectangle 50" width="60.644" height="5.131" rx="2.565" transform="translate(0 53.999)" fill="#b0e1ff"/>
        </g>
        <rect id="Rectangle_57" data-name="Rectangle 57" width="203.512" height="234.732" rx="12.592" transform="translate(215.542 188.63)" fill="#c7e7ff" opacity="0.49"/>
        <rect id="Rectangle_58" data-name="Rectangle 58" width="75.521" height="6.389" rx="3.195" transform="translate(330.028 211.464)" fill="#b0e1ff"/>
        <rect id="Rectangle_59" data-name="Rectangle 59" width="75.521" height="6.389" rx="3.195" transform="translate(330.028 227.909)" fill="#b0e1ff"/>
        <rect id="Rectangle_60" data-name="Rectangle 60" width="75.521" height="6.389" rx="3.195" transform="translate(330.028 245.087)" fill="#b0e1ff"/>
        <rect id="Rectangle_61" data-name="Rectangle 61" width="75.521" height="6.389" rx="3.195" transform="translate(330.028 262.265)" fill="#b0e1ff"/>
        <rect id="Rectangle_62" data-name="Rectangle 62" width="75.521" height="6.389" rx="3.195" transform="translate(330.028 278.71)" fill="#b0e1ff"/>
        <rect id="Rectangle_63" data-name="Rectangle 63" width="75.521" height="6.389" rx="3.195" transform="translate(327.828 327.94)" fill="#b0e1ff"/>
        <rect id="Rectangle_64" data-name="Rectangle 64" width="75.521" height="6.389" rx="3.195" transform="translate(327.828 344.385)" fill="#b0e1ff"/>
        <rect id="Rectangle_65" data-name="Rectangle 65" width="75.521" height="6.389" rx="3.195" transform="translate(327.828 361.563)" fill="#b0e1ff"/>
        <rect id="Rectangle_66" data-name="Rectangle 66" width="75.521" height="6.389" rx="3.195" transform="translate(327.828 378.741)" fill="#b0e1ff"/>
        <rect id="Rectangle_67" data-name="Rectangle 67" width="75.521" height="6.389" rx="3.195" transform="translate(327.828 395.186)" fill="#b0e1ff"/>
        <rect id="Rectangle_68" data-name="Rectangle 68" width="90.499" height="90.499" rx="7.639" transform="translate(226.645 200.989)" fill="#b0e1ff"/>
        <rect id="Rectangle_69" data-name="Rectangle 69" width="90.499" height="90.499" rx="9.895" transform="translate(190.089 324.169)" fill="#b0e1ff"/>
        <rect id="Rectangle_70" data-name="Rectangle 70" width="72.672" height="72.672" rx="12.328" transform="translate(447.237 201.293)" fill="#b0e1ff"/>
        <path id="Path_235" data-name="Path 235" d="M1530.012,571.885l-34.52-19.93a4.58,4.58,0,0,0-6.87,3.966v39.86a4.58,4.58,0,0,0,6.87,3.966l34.52-19.93A4.579,4.579,0,0,0,1530.012,571.885Z" transform="translate(-1234.909 -328.46)" fill="#4f6bfd"/>
        <path id="Path_236" data-name="Path 236" d="M1889.353,458.215,1382.259,772.14a12.3,12.3,0,0,1-.965-4.79V466.615a12.333,12.333,0,0,1,12.333-12.333h486.7A12.3,12.3,0,0,1,1889.353,458.215Z" transform="translate(-1210.164 -306.084)" fill="#fff" opacity="0.2"/>
        <g id="Group_46" data-name="Group 46" transform="translate(15.836 238.802)">
          <path id="Path_237" data-name="Path 237" d="M1377.7,637.87s-3.252,1.557.743-2.119c13.814-18.935,25.228-37.223,37.263-50.145,0,0,.176-4.607-4.742-3.9,0,0-38.959,23.948-46.205,37.614-3.044,5.74-4.454,5.575-5.305,6.425Z" transform="translate(-1220.963 -574.247)" fill="#fcc0bf"/>
          <path id="Path_238" data-name="Path 238" d="M1384.123,940.138l6.031,18.183,14.408-2.407.287-19.971Z" transform="translate(-1226.652 -655.935)" fill="#fcc0bf"/>
          <path id="Path_239" data-name="Path 239" d="M1405,947.8s-13.069,7.512-18.861-.885,18.873-2.411,18.873-2.411Z" transform="translate(-1226.913 -657.432)" fill="#3d2c63" opacity="0.19"/>
          <path id="Path_240" data-name="Path 240" d="M1391.769,896.448s-13.526,8.027-20.127,2.381c0,0-24.934-99.862-41.442-112.719-.651-.506-.786-1.481-1.136-2.288-4.64-10.671-4.553-28.753-4.1-38.48l36-9.623S1400.149,788.168,1391.769,896.448Z" transform="translate(-1212.966 -609.773)" fill="#535353"/>
          <path id="Path_241" data-name="Path 241" d="M1205.849,875.106l-17,12.51,7.236,12.672,20.869-7.2Z" transform="translate(-1181.63 -641.909)" fill="#fcc0bf"/>
          <path id="Path_242" data-name="Path 242" d="M1201.782,881.727s-2.9,8.025,4.688,17.492l5.319-1.745Z" transform="translate(-1184.487 -643.436)" fill="#3d2c63" opacity="0.19"/>
          <path id="Path_243" data-name="Path 243" d="M1203.663,844.51c-6.445,4.355,7.319,19.978,7.319,19.978,76.561-26.626,97.112-42.31,101.077-123.129.428-8.712-39.8-9.856-39.8-9.856C1267.167,732.485,1277.23,794.79,1203.663,844.51Z" transform="translate(-1184.65 -608.801)" fill="#535353"/>
          <path id="Path_244" data-name="Path 244" d="M1373.12,647.358s-.743.879-1.981,2.269c-4.521,5.081-15.634,17-20.987,17.687-8.516,1.095-16.065-13.748-16.065-13.748s6.079-7.6,21.906-22.793c.934-.9,1.9-1.821,2.9-2.772C1358.891,628,1371.266,637.708,1373.12,647.358Z" transform="translate(-1215.116 -584.938)" fill="#6a8cbc"/>
          <path id="Path_245" data-name="Path 245" d="M1379.684,647.358s-.743.879-1.981,2.269c-.895-1.678-2.021-3.667-3.436-5.952a50.661,50.661,0,0,0-11.711-12.9c.934-.9,1.9-1.821,2.9-2.772C1365.455,628,1377.83,637.708,1379.684,647.358Z" transform="translate(-1221.68 -584.938)" fill="#fff" opacity="0.32"/>
          <path id="Path_246" data-name="Path 246" d="M1361.416,730.068c-8.429,4.921-69.528,6.343-73.083-2.812-3.819-9.85,10.067-71.973,21.746-82.9,2.508-2.349,6.639-3.523,11.153-4.043a75.815,75.815,0,0,1,15.578.2c3.859.4,6.511.886,6.511.886S1367.679,652.615,1361.416,730.068Z" transform="translate(-1204.418 -587.702)" fill="#6a8cbc"/>
          <path id="Path_247" data-name="Path 247" d="M1339.421,649.843c-7.885.343-8.229-7.143-8.141-9.531a75.815,75.815,0,0,1,15.578.2C1347.409,643.644,1347.146,649.515,1339.421,649.843Z" transform="translate(-1214.466 -587.702)" fill="#fff" opacity="0.32"/>
          <path id="Path_248" data-name="Path 248" d="M1359.073,690.585a28.539,28.539,0,0,0-9.627-11.416Z" transform="translate(-1218.657 -596.735)" fill="#3d2c63" opacity="0.32"/>
          <g id="Group_45" data-name="Group 45" transform="translate(111.489 21.809)">
            <path id="Path_249" data-name="Path 249" d="M1353.912,613.359s1.432,8.341-.337,9.935c0,0-3.576.249-2.125-8.016S1353.912,613.359,1353.912,613.359Z" transform="translate(-1330.528 -602.834)" fill="#29114d"/>
            <ellipse id="Ellipse_20" data-name="Ellipse 20" cx="3.593" cy="3.423" rx="3.593" ry="3.423" transform="translate(19.838 15.235)" fill="#fcc0bf"/>
            <path id="Path_250" data-name="Path 250" d="M1342.807,643.605a8.444,8.444,0,0,1-4.522.65,4.885,4.885,0,0,1-4.222-5.271,34.243,34.243,0,0,0,.013-5.714l-.005-.085a4.894,4.894,0,0,1,5.014-5.108h1.533a4.988,4.988,0,0,1,5.108,4.975c-.028,1.221-.031,2.264-.017,3.152.016,1.055.058,1.9.115,2.564A4.812,4.812,0,0,1,1342.807,643.605Z" transform="translate(-1326.593 -606.764)" fill="#fcc0bf"/>
            <path id="Path_251" data-name="Path 251" d="M1345.556,636.206a9.235,9.235,0,0,1-2.445.571,11.191,11.191,0,0,1-9.189-3.506c-.19-2.826-.552-5.193-.552-5.193h12.4C1345.576,631.669,1345.526,634.293,1345.556,636.206Z" transform="translate(-1326.44 -606.764)" fill="#3d2c63" opacity="0.19"/>
            <path id="Path_252" data-name="Path 252" d="M1330.136,612.027s-4.71,18.237,7.988,18.471c13.959.257,9.994-18.14,9.994-18.14S1340.085,600.868,1330.136,612.027Z" transform="translate(-1325.497 -601.939)" fill="#fcc0bf"/>
            <path id="Path_253" data-name="Path 253" d="M1353.123,603.186c-.043.175-.085.345-.126.514-.027.11-.054.218-.081.324a43.3,43.3,0,0,1-1.207,4.24c-.039.11-.081.216-.122.319-1.553,3.932-3.623,3.309-11.82,2.758h0l-.563-.037h0c-1.907-.122-4.13-.236-6.735-.288l-.419-.008c-.686-.011-1.4-.019-2.133-.021.955,5.04-.669,11.157-.843,10.937a12.043,12.043,0,0,1-2.034-10.907,7.784,7.784,0,0,1-.193-1.689c0-.109,0-.222,0-.339a7.989,7.989,0,0,1,.991-3.763c.075-.135.156-.27.244-.4a9.394,9.394,0,0,1,5.747-3.75,19.864,19.864,0,0,1,2.912-.545q.279-.032.559-.056a26.644,26.644,0,0,1,4.34-.013c.13.008.258.019.386.032A40.079,40.079,0,0,1,1353.123,603.186Z" transform="translate(-1324.86 -600.377)" fill="#29114d"/>
            <path id="Path_254" data-name="Path 254" d="M1329.032,615.189a20.958,20.958,0,0,1,6.279.544s-3.742-1.8-5.136-1.49S1329.032,615.189,1329.032,615.189Z" transform="translate(-1325.435 -603.566)" fill="#29114d"/>
            <ellipse id="Ellipse_21" data-name="Ellipse 21" cx="3.427" cy="3.264" rx="3.427" ry="3.264" transform="translate(0 15.922)" fill="#fcc0bf"/>
            <path id="Path_255" data-name="Path 255" d="M1342.318,628.438l5.374-.221s-.221,3.975-2.871,3.533S1342.318,628.438,1342.318,628.438Z" transform="translate(-1328.502 -606.796)"/>
            <ellipse id="Ellipse_22" data-name="Ellipse 22" cx="1.035" cy="1.035" rx="1.035" ry="1.035" transform="translate(11.624 14.649)"/>
            <ellipse id="Ellipse_23" data-name="Ellipse 23" cx="1.035" cy="1.035" rx="1.035" ry="1.035" transform="translate(18.908 14.697)"/>
          </g>
          <path id="Path_256" data-name="Path 256" d="M1421.694,968.081l-27.2,4.614a2.1,2.1,0,0,1-2.418-1.717l-.823-4.854c-.389-2.29-.7-4.121.726-4.363l.258.064a16.45,16.45,0,0,0,13.737-2.766h0c3.561-.342,4.216.908,7.35,1.83,2.424.714,4.489,1.542,5.857,2.082a4.326,4.326,0,0,1,2.512,2.656c.025.075.052.155.072.236C1422.464,968.455,1421.694,968.081,1421.694,968.081Z" transform="translate(-1228.221 -661.251)" fill="#fdbd28"/>
          <path id="Path_257" data-name="Path 257" d="M1428.4,968.647l-5.141.873c-2.234-2.219-2.981-6.039-3.226-8.065,2.424.714,4.489,1.542,5.857,2.082a4.326,4.326,0,0,1,2.512,2.656c.025.075.052.155.072.236C1429.175,969.021,1428.4,968.647,1428.4,968.647Z" transform="translate(-1234.932 -661.817)" fill="#eaeaea"/>
          <path id="Path_258" data-name="Path 258" d="M1422.022,970.067l-27.2,4.614a2.1,2.1,0,0,1-2.418-1.717l-.054-.318,29.671-5.033c.025.075.052.155.072.236C1422.792,970.44,1422.022,970.067,1422.022,970.067Z" transform="translate(-1228.55 -663.237)" fill="#2b1a82"/>
          <path id="Path_259" data-name="Path 259" d="M1411.665,963.336a.626.626,0,0,1-.19,0,.645.645,0,0,1-.558-.722l.419-3.277a.645.645,0,1,1,1.28.164l-.419,3.277A.644.644,0,0,1,1411.665,963.336Z" transform="translate(-1232.828 -661.2)" fill="#3d2c63"/>
          <path id="Path_260" data-name="Path 260" d="M1415.405,963.536a.674.674,0,0,1-.168.005.645.645,0,0,1-.583-.7l.292-3.145a.645.645,0,0,1,1.285.119l-.292,3.146A.646.646,0,0,1,1415.405,963.536Z" transform="translate(-1233.69 -661.277)" fill="#3d2c63"/>
          <path id="Path_261" data-name="Path 261" d="M1196.267,919.74l-16.391-22.186a2.1,2.1,0,0,1,.441-2.933l3.96-2.926c1.868-1.38,3.362-2.483,4.22-1.322l.059.259a16.454,16.454,0,0,0,8.669,11.01h0c1.913,3.023,1.093,4.172,1.685,7.384.457,2.486.65,4.7.785,6.167a4.322,4.322,0,0,1-1.236,3.44c-.055.056-.115.117-.178.172C1196.282,920.6,1196.267,919.74,1196.267,919.74Z" transform="translate(-1179.468 -645.317)" fill="#fdbd28"/>
          <path id="Path_262" data-name="Path 262" d="M1200.373,925.475l-3.1-4.193c.971-3,4.043-5.385,5.741-6.519.457,2.486.65,4.7.785,6.167a4.322,4.322,0,0,1-1.236,3.44c-.055.056-.115.117-.178.172C1200.387,926.331,1200.373,925.475,1200.373,925.475Z" transform="translate(-1183.573 -651.052)" fill="#eaeaea"/>
          <path id="Path_263" data-name="Path 263" d="M1196.267,921.1l-16.391-22.186a2.1,2.1,0,0,1,.441-2.933l.259-.192L1198.458,920c-.055.056-.115.117-.178.172C1196.282,921.956,1196.267,921.1,1196.267,921.1Z" transform="translate(-1179.468 -646.678)" fill="#2b1a82"/>
          <path id="Path_264" data-name="Path 264" d="M1198.122,908.319a.662.662,0,0,1-.089-.168.646.646,0,0,1,.392-.824l3.114-1.106a.645.645,0,0,1,.431,1.216l-3.113,1.1A.645.645,0,0,1,1198.122,908.319Z" transform="translate(-1183.739 -649.074)" fill="#3d2c63"/>
          <path id="Path_265" data-name="Path 265" d="M1199.667,911.712a.631.631,0,0,1-.082-.147.646.646,0,0,1,.363-.837l2.939-1.159a.645.645,0,1,1,.474,1.2l-2.938,1.159A.645.645,0,0,1,1199.667,911.712Z" transform="translate(-1184.095 -649.844)" fill="#3d2c63"/>
          <path id="Path_266" data-name="Path 266" d="M1364,649.207a54.57,54.57,0,0,1,10.6,9.066l-1.916,2.005Z" transform="translate(-1222.012 -589.827)" fill="#3d2c63" opacity="0.32"/>
          <path id="Path_267" data-name="Path 267" d="M1318.034,686.39s6.7,20.516,32.661,37.957c18.073,12.14,18.116,12.077,18.116,12.077Z" transform="translate(-1211.415 -598.4)" fill="#3d2c63" opacity="0.32"/>
          <path id="Path_268" data-name="Path 268" d="M1350.923,689.635s-.147-.78,3.9,2.843c16.039,33.284,35.87,42.97,35.87,42.97l-3.106,6.636s-12.647.6-46.243-31.322c-4.71-4.476-7.642-7.928-8.5-8.766Z" transform="translate(-1214.827 -599.131)" fill="#fcc0bf"/>
          <path id="Path_269" data-name="Path 269" d="M1350.712,687.924c-.966,9.778-11.823,20.611-11.823,20.611q-2.181-1.725-4.146-3.507c-16.218-14.659-21.546-31.364-21.546-31.364a27.461,27.461,0,0,1,13.429-5.968c6.439-1.039,16.985,11.168,21.691,17.1C1349.809,686.67,1350.712,687.924,1350.712,687.924Z" transform="translate(-1210.299 -594.075)" fill="#6a8cbc"/>
          <path id="Path_270" data-name="Path 270" d="M1357.168,693.066c-.966,9.778-11.823,20.611-11.823,20.611q-2.181-1.725-4.146-3.507a45.788,45.788,0,0,0,13.574-20.236C1356.265,691.811,1357.168,693.066,1357.168,693.066Z" transform="translate(-1216.755 -599.217)" fill="#fff" opacity="0.32"/>
          <path id="Path_271" data-name="Path 271" d="M1427.515,578.436l-2.111,1.613c-.2.135,4.381,4.71,4.381,4.71s10.069-4.842,10.613-5.484-3.165.071-3.165.071,3.388-1.4,4.173-2.43c.625-.824-4.265.633-4.265.633,1.813-1.063,4.87-2.583,4.624-3.216-.308-.793-5.746,1.927-5.746,1.927s3.453-2.077,3.375-2.907-7.583,2.595-7.583,2.595a4.74,4.74,0,0,0,.055-3.573l-.006-.013a.642.642,0,0,0-1.194.243C1430.316,575.046,1427.515,578.436,1427.515,578.436Z" transform="translate(-1236.168 -572.034)" fill="#fcc0bf"/>
          <path id="Path_272" data-name="Path 272" d="M1409.195,750.363l-2.315-1.3c-.2-.128-2.892,6.74-2.892,6.74s8.721,6.483,9.525,6.73-1.315-2.879-1.315-2.879,2.62,2.561,3.88,2.875c1,.249-2.266-3.668-2.266-3.668,1.693,1.246,4.3,3.453,4.781,2.978.606-.6-4.04-4.518-4.04-4.518s3.272,2.352,4,1.952-5.378-5.942-5.378-5.942a4.737,4.737,0,0,0,3.3-1.36l.01-.011a.642.642,0,0,0-.695-1C1413.416,751.6,1409.195,750.363,1409.195,750.363Z" transform="translate(-1231.232 -612.848)" fill="#fcc0bf"/>
          <path id="Path_273" data-name="Path 273" d="M1336.867,801.958s2.933-13.633,3.326-16.293c0,0,8.28,29.11,9.849,44.132C1350.041,829.8,1339.959,805.4,1336.867,801.958Z" transform="translate(-1215.757 -621.288)" opacity="0.31"/>
        </g>
        <path id="Rectangle_71" data-name="Rectangle 71" d="M34.251,0H187.807a34.251,34.251,0,0,1,34.251,34.251v0a0,0,0,0,1,0,0H0a0,0,0,0,1,0,0v0A34.251,34.251,0,0,1,34.251,0Z" transform="translate(319.553 516.899)" fill="#4e7c9b"/>
        <g id="Group_48" data-name="Group 48" transform="translate(175.465)">
          <path id="Path_274" data-name="Path 274" d="M1658.861,318.669s6.366,16.585,48.721,4.211l1.9,6.207s-14.311,16.071-43.3,13.867a33.585,33.585,0,0,1-21.293-10.023Z" transform="translate(-1566.401 -274.817)" fill="#fcc0bf"/>
          <path id="Path_275" data-name="Path 275" d="M1621.511,320.085c1.93,4.817,15.591,12.273,21.572,15.36.072.032.136.072.208.1,1.6.821,2.591,1.3,2.591,1.3a15.045,15.045,0,0,0,1.8-1.021c7.664-4.992,12.952-17.082,12.952-17.082-1.173-.734-2.321-1.436-3.446-2.09-18.414-10.87-29.811-12.281-29.811-12.281S1618.409,312.333,1621.511,320.085Z" transform="translate(-1560.862 -271.522)" fill="#ff6b6b"/>
          <path id="Path_276" data-name="Path 276" d="M1649.743,339.124c.072.032.136.072.208.1,1.6.821,2.591,1.3,2.591,1.3a15.045,15.045,0,0,0,1.8-1.021c7.664-4.992,12.952-17.082,12.952-17.082-1.173-.734-2.321-1.436-3.446-2.09C1662.447,323.677,1658.539,331.3,1649.743,339.124Z" transform="translate(-1567.521 -275.201)" fill="#fff" opacity="0.32"/>
          <path id="Path_277" data-name="Path 277" d="M1564.266,387.689c.869,9.5,63.169,11.979,71.359,7.194,1.827-70.929-20.1-90.81-20.1-90.81s-2.034-.311-5.12-.59a85.359,85.359,0,0,0-16.1-.056c-4.37.487-8.437,1.523-11.092,3.525C1566.69,319.392,1563.333,377.449,1564.266,387.689Z" transform="translate(-1547.782 -271.22)" fill="#ff6b6b"/>
          <path id="Path_278" data-name="Path 278" d="M1612.391,311.266c6.859-.431,7.113-6.181,7.05-7.784a85.359,85.359,0,0,0-16.1-.056C1603.2,306.592,1604.99,311.736,1612.391,311.266Z" transform="translate(-1556.821 -271.22)" fill="#fff" opacity="0.32"/>
          <path id="Path_279" data-name="Path 279" d="M1642.125,322.17s3.015,10.1,6.069,17.481c1.6.821,2.591,1.3,2.591,1.3a15.045,15.045,0,0,0,1.8-1.021Z" transform="translate(-1565.765 -275.625)" fill="#3d2c63" opacity="0.32"/>
          <path id="Path_280" data-name="Path 280" d="M1566.57,350.217l18.067-11.445-20.329,22.013Z" transform="translate(-1547.824 -279.452)" fill="#3d2c63" opacity="0.32"/>
          <path id="Path_281" data-name="Path 281" d="M1570.125,341.668s-19.662,14.178,19.823,27.949c0,0,3.233,4.437-1.316,6.059,0,0-35.871-2.695-43.575-18.908-9.164-19.285,13.631-33.067,13.631-33.067Z" transform="translate(-1542.885 -275.978)" fill="#fcc0bf"/>
          <path id="Path_282" data-name="Path 282" d="M1548.348,329.437s10.176,10.885,19.649,12.146c0,0,1.34-.9,3.334-2.393,5.981-4.45,17.871-14.155,17.082-20.376a26.723,26.723,0,0,0-5.375-13.238s-17.13,4.857-32.139,20.982C1550.039,327.483,1549.193,328.44,1548.348,329.437Z" transform="translate(-1544.144 -271.799)" fill="#ff6b6b"/>
          <path id="Path_283" data-name="Path 283" d="M1725.819,322.326l-2.339,1.25c-.215.1,3.561,5.344,3.561,5.344s10.7-3.155,11.336-3.7-3.129-.438-3.129-.438,3.563-.831,4.5-1.724c.748-.711-4.3-.061-4.3-.061,1.957-.756,5.213-1.763,5.071-2.426-.176-.83-5.971.976-5.971.976s3.736-1.491,3.792-2.322-7.888,1.34-7.888,1.34a4.728,4.728,0,0,0,.628-3.512l0-.014a.641.641,0,0,0-1.215.047C1729.123,319.435,1725.819,322.326,1725.819,322.326Z" transform="translate(-1584.52 -274.346)" fill="#fcc0bf"/>
          <path id="Path_284" data-name="Path 284" d="M1604.291,382.591l-2.638-.266c-.235-.037-.023,6.421-.023,6.421s10.639,3.345,11.473,3.249-2.354-2.108-2.354-2.108,3.421,1.3,4.7,1.078c1.017-.173-3.539-2.45-3.539-2.45,2.047.464,5.311,1.443,5.563.813.317-.787-5.5-2.518-5.5-2.518s3.933.845,4.443.186-7.3-3.286-7.3-3.286a4.731,4.731,0,0,0,2.479-2.565l0-.014a.641.641,0,0,0-1.035-.638C1608.645,382.034,1604.291,382.591,1604.291,382.591Z" transform="translate(-1556.409 -289.038)" fill="#fcc0bf"/>
          <path id="Path_285" data-name="Path 285" d="M1548.348,335.724S1558.524,346.61,1568,347.87c0,0,1.34-.9,3.334-2.393a51.638,51.638,0,0,1-20.432-12.632C1550.039,333.77,1549.193,334.727,1548.348,335.724Z" transform="translate(-1544.144 -278.086)" fill="#fff" opacity="0.32"/>
          <path id="Path_286" data-name="Path 286" d="M1684.6,540.888l2.532,19.183,14.75.346,4.075-19.757Z" transform="translate(-1575.557 -325.998)" fill="#fcc0bf"/>
          <path id="Path_287" data-name="Path 287" d="M1684.906,517.016s-14.944,5.4-20.422-1.456c0,0-.435-5.068-1.021-12.228-1.229-14.938-3.12-38.978-3.152-45.167-.05-12.625-54.754-6.316-63.717-10.374,0,0-1.9-24.2,2.408-34.25a9.212,9.212,0,0,1,2.011-3.127C1672.766,408.762,1707.357,393.15,1684.906,517.016Z" transform="translate(-1555.172 -295.626)" fill="#4c6474"/>
          <path id="Path_288" data-name="Path 288" d="M1716.465,575.432l-27.854-.585a2.124,2.124,0,0,1-2.073-2.162l.1-4.971c.049-2.345.089-4.22,1.547-4.19l.244.112a16.617,16.617,0,0,0,14.152-.137h0c3.6.336,4.01,1.7,6.944,3.209,2.27,1.169,4.161,2.382,5.415,3.178a4.368,4.368,0,0,1,1.988,3.112c.011.078.022.163.027.249C1717.158,575.949,1716.465,575.432,1716.465,575.432Z" transform="translate(-1576.005 -331.264)" fill="#4f6bfd"/>
          <path id="Path_289" data-name="Path 289" d="M1723.338,576.394l-5.265-.111c-1.8-2.625-1.811-6.556-1.67-8.613,2.27,1.169,4.161,2.382,5.415,3.178a4.369,4.369,0,0,1,1.988,3.112c.011.078.022.163.027.248C1724.031,576.91,1723.338,576.394,1723.338,576.394Z" transform="translate(-1582.878 -332.226)" fill="#fff"/>
          <path id="Path_290" data-name="Path 290" d="M1716.465,578.087l-27.854-.585a2.122,2.122,0,0,1-2.073-2.162l.006-.325,30.389.638c.011.078.022.163.027.248C1717.158,578.6,1716.465,578.087,1716.465,578.087Z" transform="translate(-1576.005 -333.919)" fill="#2b1a82"/>
          <path id="Path_291" data-name="Path 291" d="M1707.53,568.006a.652.652,0,0,1-.606-.855l1.037-3.171a.652.652,0,1,1,1.239.4l-1.038,3.172A.651.651,0,0,1,1707.53,568.006Z" transform="translate(-1580.698 -331.272)" fill="#fff"/>
          <path id="Path_292" data-name="Path 292" d="M1711.209,568.907a.677.677,0,0,1-.168-.026.652.652,0,0,1-.445-.807l.886-3.065a.652.652,0,0,1,1.252.362l-.886,3.064A.653.653,0,0,1,1711.209,568.907Z" transform="translate(-1581.546 -331.504)" fill="#fff"/>
          <path id="Path_293" data-name="Path 293" d="M1646.527,540.888l2.532,19.183,14.75.346,4.075-19.757Z" transform="translate(-1566.78 -325.998)" fill="#fcc0bf"/>
          <path id="Path_294" data-name="Path 294" d="M1663.463,504.712c-1.229-14.938-3.12-38.978-3.152-45.167-.05-12.625-54.754-6.316-63.717-10.374,0,0-1.9-24.2,2.408-34.25C1651.424,414.611,1674.921,422.71,1663.463,504.712Z" transform="translate(-1555.172 -297.007)" opacity="0.2"/>
          <path id="Path_295" data-name="Path 295" d="M1647.137,517.338s-14.942,5.4-20.418-1.457c0,0-1.827-26.581-4.486-57.438-.275-3.179-17.736-3.8-30.959-3.451-20.728.547-36.395-19.15-30.656-39.075a11.659,11.659,0,0,1,2.631-5.185C1635,409.082,1666.416,407.119,1647.137,517.338Z" transform="translate(-1546.697 -295.948)" fill="#4c6474"/>
          <path id="Path_296" data-name="Path 296" d="M1678.394,575.432l-27.854-.585a2.125,2.125,0,0,1-2.074-2.162l.1-4.971c.049-2.345.089-4.22,1.547-4.19l.244.112a16.617,16.617,0,0,0,14.152-.137h0c3.6.336,4.01,1.7,6.944,3.209,2.27,1.169,4.161,2.382,5.415,3.178a4.366,4.366,0,0,1,1.988,3.112c.011.078.023.163.028.249C1679.088,575.949,1678.394,575.432,1678.394,575.432Z" transform="translate(-1567.227 -331.264)" fill="#4f6bfd"/>
          <path id="Path_297" data-name="Path 297" d="M1685.268,576.394l-5.265-.111c-1.8-2.625-1.811-6.556-1.67-8.613,2.27,1.169,4.161,2.382,5.415,3.178a4.366,4.366,0,0,1,1.988,3.112c.011.078.023.163.028.248C1685.961,576.91,1685.268,576.394,1685.268,576.394Z" transform="translate(-1574.101 -332.226)" fill="#fff"/>
          <path id="Path_298" data-name="Path 298" d="M1678.394,578.087l-27.854-.585a2.123,2.123,0,0,1-2.074-2.162l.007-.325,30.389.638c.011.078.023.163.028.248C1679.088,578.6,1678.394,578.087,1678.394,578.087Z" transform="translate(-1567.227 -333.919)" fill="#2b1a82"/>
          <path id="Path_299" data-name="Path 299" d="M1669.46,568.006a.652.652,0,0,1-.606-.855l1.037-3.171a.651.651,0,1,1,1.238.4l-1.037,3.172A.651.651,0,0,1,1669.46,568.006Z" transform="translate(-1571.92 -331.272)" fill="#fff"/>
          <path id="Path_300" data-name="Path 300" d="M1673.139,568.907a.677.677,0,0,1-.168-.026.652.652,0,0,1-.445-.807l.885-3.065a.652.652,0,0,1,1.253.362l-.886,3.064A.653.653,0,0,1,1673.139,568.907Z" transform="translate(-1572.768 -331.504)" fill="#fff"/>
          <g id="Group_47" data-name="Group 47" transform="translate(41.125)">
            <path id="Path_301" data-name="Path 301" d="M1625.881,274.659s1.432,8.342-.337,9.935c0,0-3.576.249-2.125-8.015S1625.881,274.659,1625.881,274.659Z" transform="translate(-1602.497 -264.134)" fill="#29114d"/>
            <ellipse id="Ellipse_24" data-name="Ellipse 24" cx="3.593" cy="3.423" rx="3.593" ry="3.423" transform="translate(19.838 15.235)" fill="#fcc0bf"/>
            <path id="Path_302" data-name="Path 302" d="M1614.776,304.906a8.444,8.444,0,0,1-4.522.65,4.885,4.885,0,0,1-4.222-5.271,34.26,34.26,0,0,0,.013-5.713l-.005-.085a4.894,4.894,0,0,1,5.014-5.108h1.534a4.988,4.988,0,0,1,5.107,4.974c-.028,1.221-.031,2.264-.017,3.152.016,1.056.059,1.9.115,2.564A4.811,4.811,0,0,1,1614.776,304.906Z" transform="translate(-1598.562 -268.064)" fill="#fcc0bf"/>
            <path id="Path_303" data-name="Path 303" d="M1617.525,297.506a9.207,9.207,0,0,1-2.444.571,11.193,11.193,0,0,1-9.189-3.5c-.189-2.827-.552-5.193-.552-5.193h12.406C1617.545,292.97,1617.495,295.593,1617.525,297.506Z" transform="translate(-1598.409 -268.064)" fill="#3d2c63" opacity="0.19"/>
            <path id="Path_304" data-name="Path 304" d="M1602.106,273.327s-4.711,18.237,7.987,18.471c13.959.257,9.993-18.139,9.993-18.139S1612.054,262.168,1602.106,273.327Z" transform="translate(-1597.466 -263.24)" fill="#fcc0bf"/>
            <path id="Path_305" data-name="Path 305" d="M1625.092,264.486c-.043.175-.085.345-.126.514-.027.11-.054.218-.081.325a43.438,43.438,0,0,1-1.206,4.24c-.04.11-.082.215-.123.319-1.553,3.932-3.623,3.309-11.82,2.758h0l-.562-.036h0c-1.907-.122-4.13-.236-6.735-.289l-.419-.008q-1.027-.017-2.133-.022c.955,5.04-.669,11.157-.843,10.937a12.041,12.041,0,0,1-2.034-10.906,7.8,7.8,0,0,1-.193-1.69c0-.108,0-.222,0-.339a8,8,0,0,1,.991-3.763c.075-.135.156-.27.244-.4a9.4,9.4,0,0,1,5.747-3.751,19.973,19.973,0,0,1,2.911-.545c.187-.022.372-.04.559-.056a26.732,26.732,0,0,1,4.34-.013c.13.009.259.02.386.032A40.109,40.109,0,0,1,1625.092,264.486Z" transform="translate(-1596.829 -261.678)" fill="#29114d"/>
            <path id="Path_306" data-name="Path 306" d="M1601,276.489a20.959,20.959,0,0,1,6.279.544s-3.741-1.8-5.136-1.49S1601,276.489,1601,276.489Z" transform="translate(-1597.405 -264.866)" fill="#29114d"/>
            <ellipse id="Ellipse_25" data-name="Ellipse 25" cx="3.427" cy="3.264" rx="3.427" ry="3.264" transform="translate(0 15.922)" fill="#fcc0bf"/>
            <path id="Path_307" data-name="Path 307" d="M1614.287,289.738l5.374-.221s-.221,3.975-2.871,3.533S1614.287,289.738,1614.287,289.738Z" transform="translate(-1600.472 -268.096)"/>
            <ellipse id="Ellipse_26" data-name="Ellipse 26" cx="1.035" cy="1.035" rx="1.035" ry="1.035" transform="translate(11.624 14.649)"/>
            <ellipse id="Ellipse_27" data-name="Ellipse 27" cx="1.035" cy="1.035" rx="1.035" ry="1.035" transform="translate(18.908 14.697)"/>
          </g>
        </g>
        <g id="Group_53" data-name="Group 53" transform="translate(190.139 194.673)">
          <path id="Path_340" data-name="Path 340" d="M1406,532l26.3,11.325,11.325-26.3A28.636,28.636,0,0,0,1406,532Z" transform="translate(-1405.999 -514.682)" fill="#4f6bfd"/>
          <path id="Path_341" data-name="Path 341" d="M1408.543,539.7a28.636,28.636,0,1,0,37.626-14.976l-11.325,26.3Z" transform="translate(-1406.046 -516.997)" fill="#4f6bfd"/>
        </g>
        <g id="Group_54" data-name="Group 54" transform="translate(463.297 215.656)">
          <path id="Path_342" data-name="Path 342" d="M1766.126,713.326l18.433,7.937,7.937-18.433A20.07,20.07,0,0,0,1766.126,713.326Z" transform="translate(-1766.126 -701.188)" fill="#4f6bfd"/>
          <path id="Path_343" data-name="Path 343" d="M1767.944,720.448a20.069,20.069,0,1,0,26.37-10.5l-7.937,18.433Z" transform="translate(-1766.193 -704.537)" fill="#4f6bfd"/>
        </g>
        <circle id="Ellipse_32" data-name="Ellipse 32" cx="11.627" cy="11.627" r="11.627" transform="translate(416.442 444.206)" fill="#fff"/>
        <g id="Group_55" data-name="Group 55" transform="translate(295.812 18.853)">
          <path id="Path_344" data-name="Path 344" d="M1943.542,290.027v61.957a3.847,3.847,0,0,1-3.846,3.847H1703.139a3.848,3.848,0,0,1-3.847-3.847V290.027a3.847,3.847,0,0,1,3.847-3.847H1939.7a3.842,3.842,0,0,1,3.846,3.847Z" transform="translate(-1699.292 -286.18)" fill="#4f6bfd"/>
          <path id="Path_345" data-name="Path 345" d="M1761.272,326.835a22.414,22.414,0,1,1-22.414-22.414A22.331,22.331,0,0,1,1761.272,326.835Z" transform="translate(-1703.246 -290.386)" fill="#fff"/>
          <ellipse id="Ellipse_33" data-name="Ellipse 33" cx="7.931" cy="7.931" rx="7.931" ry="7.931" transform="translate(27.68 24.587)" fill="#69c1f3"/>
          <path id="Path_346" data-name="Path 346" d="M1757.334,349.6a22.416,22.416,0,0,1-33.585,0,18.422,18.422,0,0,1,33.585,0Z" transform="translate(-1704.931 -298.3)" fill="#69c1f3"/>
          <rect id="Rectangle_79" data-name="Rectangle 79" width="157.841" height="4.923" rx="2.461" transform="translate(68.709 27.128)" fill="#fff" opacity="0.48"/>
          <rect id="Rectangle_80" data-name="Rectangle 80" width="157.841" height="4.923" rx="2.461" transform="translate(68.709 42.838)" fill="#fff" opacity="0.28"/>
          <path id="Path_347" data-name="Path 347" d="M1940.714,286.316l-240.775,67.8a3.817,3.817,0,0,1-.647-2.135V290.027a3.847,3.847,0,0,1,3.847-3.847H1939.7A3.87,3.87,0,0,1,1940.714,286.316Z" transform="translate(-1696.292 -286.18)" fill="#fff" opacity="0.1"/>
        </g>
        <g id="Group_57" data-name="Group 57" transform="translate(737.883 198.061)">
          <path id="Path_348" data-name="Path 348" d="M2195.06,523.122v45.133a4.036,4.036,0,0,1-4.036,4.037H2121.9a4.039,4.039,0,0,1-4.036-4.037V523.122a4.036,4.036,0,0,1,4.036-4.036h69.119a4.037,4.037,0,0,1,4.036,4.036Z" transform="translate(-2117.868 -519.086)" fill="#69c1f3"/>
          <g id="Group_56" data-name="Group 56" transform="translate(12.395 11.192)">
            <path id="Path_349" data-name="Path 349" d="M2149.768,548.008l-10.218,3.619,10.218,3.62v4.677l-15.791-5.83V549.16l15.791-5.829Z" transform="translate(-2133.977 -535.868)" fill="#fff"/>
            <path id="Path_350" data-name="Path 350" d="M2165.945,533.632h5.413l-10.57,30.173h-5.413Z" transform="translate(-2138.91 -533.632)" fill="#fff"/>
            <path id="Path_351" data-name="Path 351" d="M2192.4,549.16v4.933l-15.791,5.83v-4.677l10.218-3.62-10.218-3.619v-4.677Z" transform="translate(-2143.805 -535.868)" fill="#fff"/>
          </g>
          <path id="Path_352" data-name="Path 352" d="M2194.294,520.757l-75.278,50.319a4.02,4.02,0,0,1-1.149-2.82V523.122a4.036,4.036,0,0,1,4.036-4.036h69.119A4.028,4.028,0,0,1,2194.294,520.757Z" transform="translate(-2117.868 -519.086)" fill="#fff" opacity="0.12"/>
        </g>
        <g id="Group_58" data-name="Group 58" transform="translate(776.531 296.369)">
          <path id="Path_353" data-name="Path 353" d="M2239.634,650.593v41.826a3.741,3.741,0,0,1-3.742,3.741h-64.054a3.744,3.744,0,0,1-3.741-3.741V650.593a3.741,3.741,0,0,1,3.741-3.742h64.054a3.741,3.741,0,0,1,3.742,3.742Z" transform="translate(-2168.097 -646.851)" fill="#ff748f"/>
          <path id="Path_354" data-name="Path 354" d="M2239.634,685.438v13.645a3.741,3.741,0,0,1-3.742,3.741h-64.054a3.744,3.744,0,0,1-3.741-3.741v-3.76c7.874-6.962,22.567-19.338,27.756-19.563,7.227-.314,10.054,11.94,15.082,11.731s9.008-6.075,15.5-6.913C2231.115,679.975,2235.683,681.817,2239.634,685.438Z" transform="translate(-2168.097 -653.515)" fill="#fff" opacity="0.73"/>
          <circle id="Ellipse_34" data-name="Ellipse 34" cx="4.399" cy="4.399" r="4.399" transform="translate(39.906 18.999)" fill="#fff" opacity="0.73"/>
          <path id="Path_355" data-name="Path 355" d="M2238.924,648.4l-69.762,46.631a3.728,3.728,0,0,1-1.065-2.613V650.592a3.74,3.74,0,0,1,3.741-3.741h64.055A3.735,3.735,0,0,1,2238.924,648.4Z" transform="translate(-2168.097 -646.851)" fill="#fff" opacity="0.12"/>
        </g>
        <g id="Group_59" data-name="Group 59" transform="translate(389.389 -59.815)">
          <path id="Path_356" data-name="Path 356" d="M1293.312,452.807v41.826a3.741,3.741,0,0,1-3.742,3.741h-64.054a3.744,3.744,0,0,1-3.741-3.741V452.807a3.741,3.741,0,0,1,3.741-3.741h64.054a3.741,3.741,0,0,1,3.742,3.741Z" transform="translate(-1221.775 -449.066)" fill="#ff748f"/>
          <path id="Path_357" data-name="Path 357" d="M1293.312,487.652V501.3a3.741,3.741,0,0,1-3.742,3.741h-64.054a3.744,3.744,0,0,1-3.741-3.741v-3.759c7.874-6.963,22.567-19.338,27.756-19.563,7.227-.315,10.054,11.94,15.082,11.73s9.008-6.075,15.5-6.913C1284.792,482.189,1289.361,484.031,1293.312,487.652Z" transform="translate(-1221.775 -455.73)" fill="#fff" opacity="0.73"/>
          <circle id="Ellipse_35" data-name="Ellipse 35" cx="4.399" cy="4.399" r="4.399" transform="translate(39.906 18.998)" fill="#fff" opacity="0.73"/>
          <path id="Path_358" data-name="Path 358" d="M1292.6,450.615l-69.762,46.631a3.727,3.727,0,0,1-1.065-2.613V452.806a3.74,3.74,0,0,1,3.741-3.74h64.055A3.733,3.733,0,0,1,1292.6,450.615Z" transform="translate(-1221.775 -449.066)" fill="#fff" opacity="0.12"/>
        </g>
        <g id="Group_61" data-name="Group 61" transform="translate(20.561 261.986)">
          <path id="Path_359" data-name="Path 359" d="M1240.707,569.812v45.133a4.036,4.036,0,0,1-4.036,4.037h-69.119a4.038,4.038,0,0,1-4.036-4.037V569.812a4.036,4.036,0,0,1,4.036-4.037h69.119a4.037,4.037,0,0,1,4.036,4.037Z" transform="translate(-1163.515 -565.775)" fill="#4f6bfd"/>
          <g id="Group_60" data-name="Group 60" transform="translate(12.395 11.193)">
            <path id="Path_360" data-name="Path 360" d="M1195.415,594.7l-10.218,3.619,10.218,3.62v4.677l-15.791-5.83V595.85l15.791-5.829Z" transform="translate(-1179.624 -582.558)" fill="#fff"/>
            <path id="Path_361" data-name="Path 361" d="M1211.591,580.322H1217l-10.57,30.173h-5.413Z" transform="translate(-1184.557 -580.322)" fill="#fff"/>
            <path id="Path_362" data-name="Path 362" d="M1238.042,595.85v4.933l-15.791,5.83v-4.677l10.218-3.62-10.218-3.619v-4.677Z" transform="translate(-1189.452 -582.558)" fill="#fff"/>
          </g>
          <path id="Path_363" data-name="Path 363" d="M1239.942,567.447l-75.278,50.319a4.021,4.021,0,0,1-1.149-2.82V569.812a4.036,4.036,0,0,1,4.036-4.037h69.119A4.03,4.03,0,0,1,1239.942,567.447Z" transform="translate(-1163.515 -565.775)" fill="#fff" opacity="0.12"/>
        </g>
        <g id="Group_62" data-name="Group 62" transform="translate(694.626 197.956)">
          <path id="Path_364" data-name="Path 364" d="M2095.166,535.708a16.758,16.758,0,0,1-29.313,11.1,16.2,16.2,0,0,1-1.066-1.337,16.761,16.761,0,1,1,30.38-9.763Z" transform="translate(-2061.65 -518.949)" fill="#4f6bfd"/>
          <path id="Path_365" data-name="Path 365" d="M2081.275,546.641s-10.882-7.7-5.361-11.349c2.767-1.828,5.361,1.47,5.361,1.47s2.16-3.113,5.361-1.166C2092.051,538.889,2081.275,546.641,2081.275,546.641Z" transform="translate(-2064.578 -522.59)" fill="#fff"/>
          <path id="Path_366" data-name="Path 366" d="M2093.242,527.9l-28.455,17.568a16.759,16.759,0,1,1,28.455-17.568Z" transform="translate(-2061.65 -518.949)" fill="#fff" opacity="0.18"/>
        </g>
        <g id="Group_63" data-name="Group 63" transform="translate(761.606 388.476)">
          <path id="Path_367" data-name="Path 367" d="M2178.551,781.481a14.844,14.844,0,1,1-1.714-6.951A14.872,14.872,0,0,1,2178.551,781.481Z" transform="translate(-2148.7 -766.556)" fill="#ff748f"/>
          <path id="Path_368" data-name="Path 368" d="M2166.179,791.218s-9.693-6.859-4.774-10.107c2.464-1.628,4.774,1.309,4.774,1.309a3.532,3.532,0,0,1,4.774-1.038C2175.776,784.315,2166.179,791.218,2166.179,791.218Z" transform="translate(-2151.308 -769.798)" fill="#fff"/>
          <path id="Path_369" data-name="Path 369" d="M2176.837,774.53l-25.344,15.647a14.926,14.926,0,1,1,25.344-15.647Z" transform="translate(-2148.7 -766.556)" fill="#fff" opacity="0.18"/>
        </g>
        <g id="Group_64" data-name="Group 64" transform="translate(33.464 339.039)">
          <path id="Path_370" data-name="Path 370" d="M1232.229,717.232a14.843,14.843,0,1,1-1.714-6.952A14.872,14.872,0,0,1,1232.229,717.232Z" transform="translate(-1202.378 -702.306)" fill="#ff748f"/>
          <path id="Path_371" data-name="Path 371" d="M1219.857,726.969s-9.693-6.859-4.774-10.108c2.464-1.628,4.774,1.309,4.774,1.309a3.532,3.532,0,0,1,4.774-1.038C1229.454,720.065,1219.857,726.969,1219.857,726.969Z" transform="translate(-1204.986 -705.548)" fill="#fff"/>
          <path id="Path_372" data-name="Path 372" d="M1230.515,710.28l-25.344,15.647a14.926,14.926,0,1,1,25.344-15.647Z" transform="translate(-1202.378 -702.306)" fill="#fff" opacity="0.18"/>
        </g>
        <g id="Group_65" data-name="Group 65" transform="translate(542.075 111.128)">
          <path id="Path_373" data-name="Path 373" d="M1893.238,421.029a14.854,14.854,0,1,1-1.714-6.951A14.872,14.872,0,0,1,1893.238,421.029Z" transform="translate(-1863.388 -406.104)" fill="#ff748f"/>
          <path id="Path_374" data-name="Path 374" d="M1880.867,430.767s-9.693-6.859-4.775-10.108c2.464-1.628,4.775,1.309,4.775,1.309a3.532,3.532,0,0,1,4.774-1.038C1890.464,423.863,1880.867,430.767,1880.867,430.767Z" transform="translate(-1865.996 -409.346)" fill="#fff"/>
          <path id="Path_375" data-name="Path 375" d="M1891.524,414.078l-25.343,15.647a14.926,14.926,0,1,1,25.343-15.647Z" transform="translate(-1863.388 -406.104)" fill="#fff" opacity="0.18"/>
        </g>
        <g id="Group_66" data-name="Group 66" transform="translate(114.008 207.068)">
          <path id="Path_376" data-name="Path 376" d="M1336.907,545.717a14.842,14.842,0,1,1-1.714-6.951A14.872,14.872,0,0,1,1336.907,545.717Z" transform="translate(-1307.056 -530.792)" fill="#4f6bfd"/>
          <path id="Path_377" data-name="Path 377" d="M1324.535,555.455s-9.693-6.859-4.775-10.108c2.464-1.628,4.775,1.309,4.775,1.309a3.532,3.532,0,0,1,4.774-1.038C1334.132,548.551,1324.535,555.455,1324.535,555.455Z" transform="translate(-1309.664 -534.034)" fill="#fff"/>
          <path id="Path_378" data-name="Path 378" d="M1335.193,538.766l-25.344,15.647a14.926,14.926,0,1,1,25.344-15.647Z" transform="translate(-1307.056 -530.792)" fill="#fff" opacity="0.18"/>
        </g>
        <path id="Path_379" data-name="Path 379" d="M1330.093,607.728a9.615,9.615,0,0,1,4.791-3.679,16.053,16.053,0,0,1,7.144-.71,32.874,32.874,0,0,1,4.261.722c.2.048.289-.264.086-.312a26.22,26.22,0,0,0-7.749-.8,12.567,12.567,0,0,0-6.366,2.105,9.134,9.134,0,0,0-2.446,2.511c-.113.176.167.338.279.163Z" transform="translate(-1198.289 -340.349)" fill="#fff" opacity="0.2"/>
        <path id="Path_380" data-name="Path 380" d="M1352.809,604.565q1.543.395,3.119.634c.2.032.292-.28.086-.312q-1.574-.24-3.119-.634a.162.162,0,0,0-.086.312Z" transform="translate(-1203.57 -340.659)" fill="#fff" opacity="0.2"/>
        <path id="Path_381" data-name="Path 381" d="M1333.582,609.359c.875-.288,1.751-.577,2.65-.78a17.016,17.016,0,0,1,2.688-.372,45.046,45.046,0,0,1,5.5.109c1.031.062,2.062.121,3.095.138a.162.162,0,0,0,0-.323c-1.849-.032-3.693-.2-5.541-.266a23.354,23.354,0,0,0-5.472.327,26.011,26.011,0,0,0-3,.856c-.2.065-.112.377.086.312Z" transform="translate(-1199.118 -341.486)" fill="#fff" opacity="0.2"/>
        <path id="Path_382" data-name="Path 382" d="M1328.706,614.234c-.16-.04-.216.113-.243.235a4.54,4.54,0,0,0-.078.569,6.99,6.99,0,0,0,.057,1.77c.035.2.346.118.312-.086a6.594,6.594,0,0,1-.059-1.518c.011-.172.028-.346.056-.517.008-.054.018-.108.031-.162a.3.3,0,0,0,.016-.057c0-.022,0,.014-.009.017-.042.013.025.108-.168.06.2.05.288-.262.085-.312Z" transform="translate(-1197.958 -342.96)" fill="#fff" opacity="0.2"/>
        <path id="Path_383" data-name="Path 383" d="M1601.922,268.748a9.616,9.616,0,0,1,4.791-3.679,16.054,16.054,0,0,1,7.144-.71,32.872,32.872,0,0,1,4.261.722c.2.048.289-.265.086-.312a26.219,26.219,0,0,0-7.749-.8,12.56,12.56,0,0,0-6.366,2.105,9.134,9.134,0,0,0-2.446,2.511c-.113.175.167.338.279.163Z" transform="translate(-1260.961 -262.195)" fill="#fff" opacity="0.2"/>
        <path id="Path_384" data-name="Path 384" d="M1624.638,265.585q1.543.395,3.119.634c.2.032.292-.281.086-.312q-1.574-.24-3.119-.634a.162.162,0,0,0-.086.312Z" transform="translate(-1266.242 -262.505)" fill="#fff" opacity="0.2"/>
        <path id="Path_385" data-name="Path 385" d="M1605.411,270.378c.875-.289,1.751-.577,2.65-.78a17.021,17.021,0,0,1,2.688-.372,45.072,45.072,0,0,1,5.5.108c1.031.062,2.062.121,3.095.138a.162.162,0,0,0,0-.323c-1.849-.032-3.693-.2-5.541-.267a23.4,23.4,0,0,0-5.472.328,26.023,26.023,0,0,0-3,.856c-.2.065-.112.377.086.312Z" transform="translate(-1261.79 -263.332)" fill="#fff" opacity="0.2"/>
        <path id="Path_386" data-name="Path 386" d="M1600.535,275.253c-.16-.039-.216.114-.243.236a4.584,4.584,0,0,0-.079.569,6.99,6.99,0,0,0,.057,1.771c.034.2.346.118.312-.086a6.608,6.608,0,0,1-.059-1.518c.012-.173.028-.346.056-.517.009-.054.018-.108.031-.162a.333.333,0,0,0,.016-.057c0-.022,0,.014-.009.017-.042.013.025.108-.168.06a.162.162,0,0,0,.085-.312Z" transform="translate(-1260.63 -264.806)" fill="#fff" opacity="0.2"/>
        <path id="Path_387" data-name="Path 387" d="M2074.109,594.425a10.339,10.339,0,0,0-5.11-3.951,16.846,16.846,0,0,0-7.575-.776,34.731,34.731,0,0,0-4.523.763c-.2.047-.117.359.086.312a27.174,27.174,0,0,1,7.862-.827,12.814,12.814,0,0,1,6.493,2.107,9.091,9.091,0,0,1,2.488,2.536c.112.175.393.012.279-.163Z" transform="translate(-1365.902 -337.278)" fill="#fff" opacity="0.2"/>
        <path id="Path_388" data-name="Path 388" d="M2054.256,590.983q-1.6.41-3.242.659c-.2.032-.118.343.086.312q1.637-.249,3.242-.659a.162.162,0,0,0-.086-.312Z" transform="translate(-1364.545 -337.6)" fill="#fff" opacity="0.2"/>
        <path id="Path_389" data-name="Path 389" d="M2071.04,595.966c-.918-.3-1.837-.606-2.78-.817a18.244,18.244,0,0,0-2.821-.391,46.272,46.272,0,0,0-5.722.109c-1.081.064-2.163.127-3.246.145a.162.162,0,0,0,0,.324c1.907-.033,3.809-.2,5.715-.275a24.043,24.043,0,0,1,5.66.329,27.169,27.169,0,0,1,3.108.888c.2.065.283-.248.086-.312Z" transform="translate(-1365.794 -338.459)" fill="#fff" opacity="0.2"/>
        <path id="Path_390" data-name="Path 390" d="M2080.411,601.671l-.151-.039q-.029-.042-.019-.023s-.006-.035-.006-.013a.349.349,0,0,0,.015.052c.014.054.023.109.032.164a5.464,5.464,0,0,1,.06.55,6.813,6.813,0,0,1-.062,1.58c-.034.2.278.292.313.086a7.247,7.247,0,0,0,.059-1.839,4.756,4.756,0,0,0-.08-.581c-.026-.125-.081-.289-.247-.249-.2.049-.116.362.086.312Z" transform="translate(-1371.302 -339.992)" fill="#fff" opacity="0.2"/>
      </g>
    </g>
    <g id="Group_30210" data-name="Group 30210" transform="translate(378.306 422.315)">
      <path id="Path_47428" data-name="Path 47428" d="M1076.187,308.979h-15.205l-.05-.634h15.205a9.191,9.191,0,0,0,8.286-5.3l.58.3A9.774,9.774,0,0,1,1076.187,308.979Z" transform="translate(-98.499 -76.043)" fill="#407bff"/>
      <path id="Path_47429" data-name="Path 47429" d="M1052.629,312.041H1046.4l-.05-.634h6.232Z" transform="translate(-93.157 -79.105)" fill="#407bff"/>
      <path id="Path_47430" data-name="Path 47430" d="M977.513,236.379H799.57a7.547,7.547,0,0,1-7.538-7.6l.958-110.263a7.707,7.707,0,0,1,7.67-7.6H978.6a7.547,7.547,0,0,1,7.539,7.6l-.958,110.263A7.707,7.707,0,0,1,977.513,236.379Z" transform="translate(0 -5.661)" fill="#407bff"/>
      <path id="Path_47431" data-name="Path 47431" d="M974.59,242.379h-173.5a6.426,6.426,0,0,1-6.419-6.475l.873-100.45a1.879,1.879,0,0,1,1.875-1.86H980.15a1.841,1.841,0,0,1,1.843,1.86l-.873,100.45A6.562,6.562,0,0,1,974.59,242.379Z" transform="translate(-0.965 -13.972)" fill="#fff"/>
      <g id="Group_30208" data-name="Group 30208" transform="translate(800.976 125.207)">
        <path id="Path_47437" data-name="Path 47437" d="M977.978,241.051H806.46a.314.314,0,0,1-.314-.317L807,142.724a.32.32,0,0,1,.319-.317H978.835a.314.314,0,0,1,.314.317l-.852,98.011A.32.32,0,0,1,977.978,241.051Zm-171.2-.634H977.667l.846-97.377H807.629Z" transform="translate(-806.146 -142.407)" fill="#e0e0e0"/>
        <path id="Path_47438" data-name="Path 47438" d="M978.247,266.772H806.729a.313.313,0,0,1-.314-.317.32.32,0,0,1,.32-.317H978.252a.314.314,0,0,1,.314.317A.32.32,0,0,1,978.247,266.772Z" transform="translate(-806.244 -187.73)" fill="#e0e0e0"/>
        <path id="Path_47439" data-name="Path 47439" d="M978.515,235.839H807a.313.313,0,0,1-.314-.317A.319.319,0,0,1,807,235.2H978.521a.314.314,0,0,1,.314.317A.32.32,0,0,1,978.515,235.839Z" transform="translate(-806.343 -176.399)" fill="#e0e0e0"/>
        <path id="Path_47440" data-name="Path 47440" d="M978.784,204.907H807.266a.314.314,0,0,1-.314-.317.32.32,0,0,1,.32-.317H978.79a.313.313,0,0,1,.314.317A.32.32,0,0,1,978.784,204.907Z" transform="translate(-806.441 -165.069)" fill="#e0e0e0"/>
        <path id="Path_47441" data-name="Path 47441" d="M979.053,173.974H807.535a.314.314,0,0,1-.314-.317.32.32,0,0,1,.319-.317H979.059a.313.313,0,0,1,.314.317A.32.32,0,0,1,979.053,173.974Z" transform="translate(-806.54 -153.738)" fill="#e0e0e0"/>
        <path id="Path_47442" data-name="Path 47442" d="M1043.289,241.051a.314.314,0,0,1-.314-.317l.852-98.011a.32.32,0,0,1,.319-.317.314.314,0,0,1,.314.317l-.852,98.011A.32.32,0,0,1,1043.289,241.051Z" transform="translate(-892.897 -142.407)" fill="#e0e0e0"/>
        <path id="Path_47443" data-name="Path 47443" d="M1009.456,241.051a.314.314,0,0,1-.314-.317l.852-98.011a.32.32,0,0,1,.319-.317.314.314,0,0,1,.314.317l-.852,98.011A.32.32,0,0,1,1009.456,241.051Z" transform="translate(-880.504 -142.407)" fill="#e0e0e0"/>
        <path id="Path_47444" data-name="Path 47444" d="M975.623,241.051a.314.314,0,0,1-.314-.317l.852-98.011a.32.32,0,0,1,.319-.317.314.314,0,0,1,.314.317l-.852,98.011A.32.32,0,0,1,975.623,241.051Z" transform="translate(-868.111 -142.407)" fill="#e0e0e0"/>
        <path id="Path_47445" data-name="Path 47445" d="M941.791,241.051a.314.314,0,0,1-.314-.317l.852-98.011a.32.32,0,0,1,.319-.317.314.314,0,0,1,.314.317l-.852,98.011A.32.32,0,0,1,941.791,241.051Z" transform="translate(-855.718 -142.407)" fill="#e0e0e0"/>
        <path id="Path_47446" data-name="Path 47446" d="M907.958,241.051a.314.314,0,0,1-.314-.317l.852-98.011a.32.32,0,0,1,.319-.317.314.314,0,0,1,.314.317l-.852,98.011A.32.32,0,0,1,907.958,241.051Z" transform="translate(-843.325 -142.407)" fill="#e0e0e0"/>
        <path id="Path_47447" data-name="Path 47447" d="M874.125,241.051a.314.314,0,0,1-.314-.317l.852-98.011a.32.32,0,0,1,.319-.317.314.314,0,0,1,.314.317l-.852,98.011A.32.32,0,0,1,874.125,241.051Z" transform="translate(-830.932 -142.407)" fill="#e0e0e0"/>
        <path id="Path_47448" data-name="Path 47448" d="M840.293,241.051a.314.314,0,0,1-.314-.317l.852-98.011a.32.32,0,0,1,.319-.317.314.314,0,0,1,.314.317l-.852,98.011A.32.32,0,0,1,840.293,241.051Z" transform="translate(-818.539 -142.407)" fill="#e0e0e0"/>
      </g>
      <path id="Path_47449" data-name="Path 47449" d="M961.329,192.614h-13.1a2.005,2.005,0,0,1-2.009-2.026l.1-11.63a2.047,2.047,0,0,1,2.044-2.026h13.1a2.006,2.006,0,0,1,2.009,2.026l-.1,11.63A2.047,2.047,0,0,1,961.329,192.614Z" transform="translate(-56.48 -29.847)" fill="#407bff"/>
      <path id="Path_47450" data-name="Path 47450" d="M961.329,192.614h-13.1a2.005,2.005,0,0,1-2.009-2.026l.1-11.63a2.047,2.047,0,0,1,2.044-2.026h13.1a2.006,2.006,0,0,1,2.009,2.026l-.1,11.63A2.047,2.047,0,0,1,961.329,192.614Z" transform="translate(-56.48 -29.847)" fill="#fff" opacity="0.6"/>
      <g id="Group_30209" data-name="Group 30209" transform="translate(982.151 146.769)">
        <path id="Path_47451" data-name="Path 47451" d="M1106.323,192.615h-13.771l.136-15.682h13.771l-4.559,7.841Z" transform="translate(-1092.233 -176.616)" fill="#fff"/>
        <path id="Path_47452" data-name="Path 47452" d="M1106.682,192.749h-14.634l.142-16.316h14.634l-4.743,8.158Zm-13.995-.634h12.907l-4.244-7.524,4.374-7.524h-12.907Z" transform="translate(-1092.048 -176.433)" fill="#407bff"/>
      </g>
      <path id="Path_47453" data-name="Path 47453" d="M1028.534,223.547h-13.1a2,2,0,0,1-2.008-2.026l.1-11.63a2.047,2.047,0,0,1,2.044-2.026h13.1a2,2,0,0,1,2.008,2.026l-.1,11.63A2.048,2.048,0,0,1,1028.534,223.547Z" transform="translate(-81.097 -41.178)" fill="#407bff"/>
      <path id="Path_47454" data-name="Path 47454" d="M1028.534,223.547h-13.1a2,2,0,0,1-2.008-2.026l.1-11.63a2.047,2.047,0,0,1,2.044-2.026h13.1a2,2,0,0,1,2.008,2.026l-.1,11.63A2.048,2.048,0,0,1,1028.534,223.547Z" transform="translate(-81.097 -41.178)" fill="#fff" opacity="0.4"/>
      <path id="Path_47455" data-name="Path 47455" d="M1050.755,161.682h-34.783a2.006,2.006,0,0,1-2.009-2.027l.1-11.629a2.048,2.048,0,0,1,2.044-2.027h34.783a2.005,2.005,0,0,1,2.008,2.027l-.1,11.629A2.048,2.048,0,0,1,1050.755,161.682Z" transform="translate(-81.294 -18.516)" fill="#407bff"/>
      <path id="Path_47456" data-name="Path 47456" d="M845.1,180.17a17.7,17.7,0,0,1-13.237-5.448c-4.373-4.6-5.428-10.321-2.75-14.92,3.967-6.815,15.424-10.448,23.231-9.441a.313.313,0,0,1,.271.355.322.322,0,0,1-.357.274c-7.609-.983-18.757,2.53-22.6,9.128-3.024,5.193-.606,10.723,2.665,14.166a17.569,17.569,0,0,0,14.368,5.2,28.742,28.742,0,0,0,20.2-10.985c1.229-1.688,3.069-4.923,1.573-7.635-2.211-4.011-8.514-3.738-13.759-3.053a.317.317,0,0,1-.353-.273.321.321,0,0,1,.276-.355c3.5-.457,11.689-1.528,14.391,3.371,1.665,3.018-.3,6.506-1.619,8.315a29.419,29.419,0,0,1-20.669,11.247Q845.9,180.17,845.1,180.17Z" transform="translate(-13.048 -20.053)" fill="#407bff"/>
      <path id="Path_47457" data-name="Path 47457" d="M1022.224,222.476a.52.52,0,0,1-.055,0,.626.626,0,0,1-.492-.315,16.265,16.265,0,0,0-2.974-4.072.637.637,0,0,1,.859-.939,15.679,15.679,0,0,1,2.771,3.61,50.465,50.465,0,0,1,6.571-6.136.631.631,0,1,1,.778.993,48.13,48.13,0,0,0-6.971,6.635A.638.638,0,0,1,1022.224,222.476Z" transform="translate(-82.956 -43.601)" fill="#fff"/>
      <path id="Path_47458" data-name="Path 47458" d="M988.685,285.107a7.05,7.05,0,0,1-7.054-7.116,7.2,7.2,0,0,1,7.178-7.116,7.05,7.05,0,0,1,7.054,7.116A7.2,7.2,0,0,1,988.685,285.107Zm.113-12.965a5.918,5.918,0,0,0-5.9,5.849,5.794,5.794,0,0,0,5.8,5.848,5.917,5.917,0,0,0,5.9-5.848A5.8,5.8,0,0,0,988.8,272.142Z" transform="translate(-69.451 -64.258)" fill="#407bff"/>
      <path id="Path_47459" data-name="Path 47459" d="M887.668,223.121A7.05,7.05,0,0,1,880.614,216a7.2,7.2,0,0,1,7.178-7.116A7.05,7.05,0,0,1,894.846,216,7.2,7.2,0,0,1,887.668,223.121Zm.113-12.965a5.918,5.918,0,0,0-5.9,5.848,5.8,5.8,0,0,0,5.8,5.85,5.918,5.918,0,0,0,5.9-5.85A5.8,5.8,0,0,0,887.781,210.155Z" transform="translate(-32.448 -41.552)" fill="#407bff"/>
    </g>
    <g id="Group_30206" data-name="Group 30206" transform="translate(992 418)">
      <g id="Character" transform="translate(228.03 56.348)">
        <g id="Group_30205" data-name="Group 30205" transform="translate(0)">
          <g id="Group_30197" data-name="Group 30197" transform="translate(0 100.736)">
            <path id="Path_47391" data-name="Path 47391" d="M97.447,234.407l-4.571,1.965,6.135,7.51a26.046,26.046,0,0,0,2.481-5.926,2.4,2.4,0,0,0-1.7-2.926Z" transform="translate(80.849 -229.4)" fill="#ff8b7b"/>
            <path id="Path_47392" data-name="Path 47392" d="M95.584,244.147l2.744,3.045a2.048,2.048,0,0,0,3.22-.226l2.275-3.373-6.135-7.51-2.47,5.9A2.048,2.048,0,0,0,95.584,244.147Z" transform="translate(76.038 -229.111)" fill="#ff8b7b"/>
            <path id="Path_47393" data-name="Path 47393" d="M108.4,260.131l158.566-12.556a7.954,7.954,0,0,0,7.308-9.4h0a9.817,9.817,0,0,0-10.225-8.011L105.488,242.72a7.953,7.953,0,0,0-7.308,9.4h0A9.818,9.818,0,0,0,108.4,260.131Z" transform="translate(-98.059 -230.136)" fill="#407bff"/>
          </g>
          <g id="Group_30204" data-name="Group 30204" transform="translate(81.935)">
            <path id="Path_47394" data-name="Path 47394" d="M167.065,192.608c-1.981,4.472-4.013,9.052-6.069,13.514-2.048,4.442-4.166,8.974-6.443,12.84a20.637,20.637,0,0,1-1.61,2.4c-.7.834-1.483,1.688-2.29,2.568-1.627,1.745-3.37,3.493-5.113,5.254-3.5,3.506-7.071,7.069-10.539,10.706l3.55,4.582a143.238,143.238,0,0,0,12.9-8.369c2.088-1.509,4.134-3.085,6.169-4.8,1.025-.85,2.033-1.768,3.06-2.765a29.022,29.022,0,0,0,2.945-3.622,115.84,115.84,0,0,0,7.887-13.747c2.294-4.625,4.391-9.237,6.345-14.038Z" transform="translate(-126.766 -135.872)" fill="#ff8b7b"/>
            <path id="Path_47395" data-name="Path 47395" d="M87.109,192.965c2.658,4.35,5.393,8.721,8.122,13.053L103.377,219l.994,1.622.124.2.061.1.009.02a.29.29,0,0,0,.056.072c.048.043.088.193.152.283a9.377,9.377,0,0,1,.5,2.44,38.468,38.468,0,0,1-.2,6.8c-.511,4.792-1.454,9.84-2.462,14.731l5.433,2.02a76.409,76.409,0,0,0,5.856-15.1,39.932,39.932,0,0,0,1.372-8.6,18.374,18.374,0,0,0-.5-5.222,14.937,14.937,0,0,0-.514-1.536l-.359-.8-.15-.312-.113-.22-.9-1.761c-2.4-4.678-4.942-9.239-7.558-13.743s-5.334-8.92-8.2-13.3Z" transform="translate(-8.038 -136.894)" fill="#ff8b7b"/>
            <path id="Path_47396" data-name="Path 47396" d="M138.981,164.424c.217.584.089,1.184-.287,1.341s-.856-.19-1.073-.774-.089-1.184.286-1.341S138.764,163.84,138.981,164.424Z" transform="translate(-90.942 -140.872)" fill="#263238"/>
            <path id="Path_47397" data-name="Path 47397" d="M136.619,165.3a23.41,23.41,0,0,1-.886,6.139,3.531,3.531,0,0,0,2.939-.621Z" transform="translate(-88.438 -140.582)" fill="#ff5652"/>
            <path id="Path_47398" data-name="Path 47398" d="M137.112,161.6a.368.368,0,0,0,.2-.094,2.851,2.851,0,0,1,2.561-.555.366.366,0,0,0,.176-.711,3.59,3.59,0,0,0-3.238.733.366.366,0,0,0,.306.626Z" transform="translate(-91.212 -141.473)" fill="#263238"/>
            <path id="Path_47399" data-name="Path 47399" d="M130.846,165.289c.73,6.311-.472,14.255,3.846,17.423,0,0-.9,5.926-11.283,7.467-11.413,1.7-6.077-4.887-6.077-4.887,6.065-2.422,5.4-7.046,3.833-11.25Z" transform="translate(-61.422 -140.583)" fill="#ff8b7b"/>
            <path id="Path_47400" data-name="Path 47400" d="M134.172,184.73c.147-2.911-.014-7.3-1.8-7.932-1.97-.7-13.617.23-19.455,5.518a18.5,18.5,0,0,1,1.992,8.516Z" transform="translate(-57.225 -138.633)" fill="#263238"/>
            <path id="Path_47401" data-name="Path 47401" d="M80.917,406.833a8.3,8.3,0,0,0,3.032-.866.184.184,0,0,0-.019-.333c-.1-.039-2.446-.94-3.493-.426a.887.887,0,0,0-.483.56.744.744,0,0,0,.181.856A1.23,1.23,0,0,0,80.917,406.833Zm2.47-1c-1.076.471-2.61.85-3.02.511-.04-.032-.161-.131-.062-.469a.529.529,0,0,1,.294-.335A4.836,4.836,0,0,1,83.387,405.83Z" transform="translate(31.647 -99.236)" fill="#407bff"/>
            <path id="Path_47402" data-name="Path 47402" d="M82.685,406.3a.184.184,0,0,0,.176-.236c-.027-.09-.665-2.224-1.687-2.728a.972.972,0,0,0-.81-.043.616.616,0,0,0-.461.625c.048.88,1.888,2.149,2.735,2.375A.168.168,0,0,0,82.685,406.3Zm-1.966-2.71a.658.658,0,0,1,.294.074,4.29,4.29,0,0,1,1.381,2.153c-.882-.392-2.1-1.4-2.126-1.918,0-.053-.009-.175.225-.265A.644.644,0,0,1,80.719,403.593Z" transform="translate(32.825 -99.55)" fill="#407bff"/>
            <path id="Path_47403" data-name="Path 47403" d="M133.05,409.752a13.709,13.709,0,0,0,2.371-.216.183.183,0,0,0,.057-.338c-.387-.227-3.813-2.188-4.641-.831a.691.691,0,0,0-.04.805C131.107,409.615,132.059,409.752,133.05,409.752Zm1.787-.49c-1.453.205-3.4.179-3.739-.3-.028-.042-.1-.15.052-.407C131.618,407.789,133.7,408.667,134.837,409.262Z" transform="translate(-79.42 -98.745)" fill="#407bff"/>
            <path id="Path_47404" data-name="Path 47404" d="M133.3,409.812a.191.191,0,0,0,.1-.032.179.179,0,0,0,.079-.162c0-.088-.131-2.164-1.081-2.976a1.324,1.324,0,0,0-1.009-.319c-.514.052-.662.315-.7.525-.148.895,1.607,2.524,2.531,2.945A.168.168,0,0,0,133.3,409.812Zm-1.762-3.129a.927.927,0,0,1,.625.238,4.151,4.151,0,0,1,.923,2.385c-.929-.564-2.121-1.856-2.031-2.4.007-.046.032-.186.374-.22C131.471,406.685,131.507,406.683,131.542,406.683Z" transform="translate(-77.339 -99.017)" fill="#407bff"/>
            <path id="Path_47405" data-name="Path 47405" d="M131.4,411.771h-7.719l-.079-17.875h7.719Z" transform="translate(-66.949 -101.159)" fill="#ff8b7b"/>
            <path id="Path_47406" data-name="Path 47406" d="M85.913,407.025,78.683,408.7l-6.07-17.683,7.23-1.671Z" transform="translate(38.326 -101.945)" fill="#ff8b7b"/>
            <path id="Path_47407" data-name="Path 47407" d="M79.774,405.141l8.411-2.112a.64.64,0,0,1,.746.355l2.894,6.349a1.184,1.184,0,0,1-.814,1.619c-2.946.686-4.41.871-8.109,1.8-2.276.571-6.913,1.987-10.056,2.778-3.073.771-4.213-2.245-2.986-2.853,5.5-2.724,7.3-5.026,8.8-7.166A1.944,1.944,0,0,1,79.774,405.141Z" transform="translate(36.11 -99.588)" fill="#263238"/>
            <path id="Path_47408" data-name="Path 47408" d="M136.392,408.379h8.43a.641.641,0,0,1,.637.528l1.259,6.861a1.171,1.171,0,0,1-1.163,1.373c-3.039-.052-7.426-.23-11.247-.23-4.469,0-4.556.244-9.8.244-3.169,0-3.924-3.2-2.588-3.494,6.09-1.321,7.245-1.463,12.586-4.68A3.7,3.7,0,0,1,136.392,408.379Z" transform="translate(-79.573 -98.662)" fill="#263238"/>
            <g id="Group_30198" data-name="Group 30198" transform="translate(73.2 41.572)">
              <path id="Path_47409" data-name="Path 47409" d="M102.4,179.7c7.336.586,17.689,18.989,17.689,18.989L106.8,210.737a116.227,116.227,0,0,1-11.267-14.821C90.306,187.566,94.9,179.105,102.4,179.7Z" transform="translate(-93.291 -179.674)" fill="#407bff"/>
              <path id="Path_47410" data-name="Path 47410" d="M102.4,179.7c7.336.586,17.689,18.989,17.689,18.989L106.8,210.737a116.227,116.227,0,0,1-11.267-14.821C90.306,187.566,94.9,179.105,102.4,179.7Z" transform="translate(-93.291 -179.674)" fill="#fff" opacity="0.6"/>
            </g>
            <path id="Path_47411" data-name="Path 47411" d="M104.09,191.022l8.788,17.187-.624.571s-3.4-3.713-7.188-8.843Z" transform="translate(-25.543 -136.146)" opacity="0.2"/>
            <g id="Group_30199" data-name="Group 30199" transform="translate(43.546 41.611)">
              <path id="Path_47412" data-name="Path 47412" d="M101.231,220.97c1.323,8.514,3.413,19.038,6.637,32.008l40.845-6.07c-.376-5.854-6.624-32-5.394-60.055a6.833,6.833,0,0,0-6.966-7.144c-2.012.046-4.238.152-6.418.369a152.444,152.444,0,0,0-17.357,2.579,78.9,78.9,0,0,0-11.511,3.877s-2.93,4.3-1.353,22.2C100.026,212.269,100.511,216.319,101.231,220.97Z" transform="translate(-99.248 -179.707)" fill="#407bff"/>
              <path id="Path_47413" data-name="Path 47413" d="M101.231,220.97c1.323,8.514,3.413,19.038,6.637,32.008l40.845-6.07c-.376-5.854-6.624-32-5.394-60.055a6.833,6.833,0,0,0-6.966-7.144c-2.012.046-4.238.152-6.418.369a152.444,152.444,0,0,0-17.357,2.579,78.9,78.9,0,0,0-11.511,3.877s-2.93,4.3-1.353,22.2C100.026,212.269,100.511,216.319,101.231,220.97Z" transform="translate(-99.248 -179.707)" fill="#fff" opacity="0.6"/>
            </g>
            <path id="Path_47414" data-name="Path 47414" d="M136.685,217.373c3.317-2.094,6.423-11.743,5.024-16.8l-6.541,4.57C135.48,208.672,135.965,212.722,136.685,217.373Z" transform="translate(-91.156 -134.499)" opacity="0.2"/>
            <g id="Group_30200" data-name="Group 30200" transform="translate(28.756 47.955)">
              <path id="Path_47415" data-name="Path 47415" d="M157.668,190.817C159.777,197.857,147,218.573,147,218.573l-15.281-7.98s3.469-10.434,8.965-18.467C146.823,183.153,155.291,182.887,157.668,190.817Z" transform="translate(-131.721 -185.119)" fill="#407bff"/>
              <path id="Path_47416" data-name="Path 47416" d="M157.668,190.817C159.777,197.857,147,218.573,147,218.573l-15.281-7.98s3.469-10.434,8.965-18.467C146.823,183.153,155.291,182.887,157.668,190.817Z" transform="translate(-131.721 -185.119)" fill="#fff" opacity="0.6"/>
            </g>
            <g id="Group_30201" data-name="Group 30201" transform="translate(56.657 287.402)">
              <path id="Path_47417" data-name="Path 47417" d="M123.635,393.9l.039,9.214H131.4l-.039-9.214Z" transform="translate(-123.635 -388.561)" opacity="0.2"/>
              <path id="Path_47418" data-name="Path 47418" d="M82.348,389.346l-7.233,1.672,3.132,9.114,7.233-1.672Z" transform="translate(-20.833 -389.346)" opacity="0.2"/>
            </g>
            <path id="Path_47419" data-name="Path 47419" d="M139.52,157.511c2.236,7.352,3.911,11.529,1.718,16.7a9.965,9.965,0,0,1-17.584,1.661c-3.914-5.812-6.913-16.859-1.066-22.592A10.065,10.065,0,0,1,139.52,157.511Z" transform="translate(-72.774 -143.186)" fill="#ff8b7b"/>
            <path id="Path_47420" data-name="Path 47420" d="M129.325,166.63c.879,3.762,3.168,10.552,8.8,11.334,3.134.435,8.364-.489,8.852-3.028s-1.466-2.188-.977-4.27,3.061-9.323.147-14.489c4.054.341,1.27-5.668-6.009-7.084,2.248-.879,1.172-7-10.061-4.1-5.256,1.354-9.153,3.42-9.627,6.239-4.778,2.018-6.043,7.1-3.078,8.954,2.874,1.8,7.25-.244,7.25-.244S122.6,170.733,129.325,166.63Z" transform="translate(-74.388 -144.217)" fill="#263238"/>
            <path id="Path_47421" data-name="Path 47421" d="M133.9,163.229a6.956,6.956,0,0,1-1.446,4.711c-1.394,1.773-1.862,1.8-2.442-.186-.521-1.783-1.807-5.77.057-6.833C131.912,159.872,133.743,161.185,133.9,163.229Z" transform="translate(-75.912 -141.4)" fill="#ff8b7b"/>
            <path id="Path_47422" data-name="Path 47422" d="M72.971,240.941s6.337,60.527,10.293,82.626c4.332,24.2,33.159,102.049,33.159,102.049l13.712-3.444c-7.059-26.932-17.453-77.187-23.8-96.412-4.784-29.23-.026-65.968-7.015-88.736Z" transform="translate(-6.316 -128.212)" fill="#263238"/>
            <g id="Group_30202" data-name="Group 30202" transform="translate(106.844 289.265)">
              <path id="Path_47423" data-name="Path 47423" d="M72.13,394.523c-.059.015,2.535,4.961,2.535,4.961l15.427-3.874-1.281-4.675Z" transform="translate(-72.129 -390.935)" fill="#407bff"/>
            </g>
            <path id="Path_47424" data-name="Path 47424" d="M113.446,260.508a3.578,3.578,0,0,0-1.335-.032c2.039,18.083,4.917,42.239,7.2,56.056C121.2,296.453,122.965,262.388,113.446,260.508Z" transform="translate(-42.874 -124.176)" opacity="0.2"/>
            <path id="Path_47425" data-name="Path 47425" d="M114.88,242.788s-3.2,64.692-3.665,88.227c-.483,24.48,5.385,97.062,5.385,97.062h13.076s4.94-67.3,2.272-100.131c3.156-25.012,9.776-89.148,9.776-89.148Z" transform="translate(-62.712 -127.906)" fill="#263238"/>
            <path id="Path_47426" data-name="Path 47426" d="M172.861,232.308a14.279,14.279,0,0,1,6.259.889l.95,1.568a2.416,2.416,0,0,1-1.333,3.551l-4.583,1.462-2.238.681a2.365,2.365,0,0,1-2.612-.886l-.958-1.338a2.366,2.366,0,0,1,.339-3.134l2.067-1.865A3.634,3.634,0,0,1,172.861,232.308Z" transform="translate(-167.903 -129.034)" fill="#ff8b7b"/>
            <g id="Group_30203" data-name="Group 30203" transform="translate(51.57 294.962)">
              <path id="Path_47427" data-name="Path 47427" d="M120.051,395.794c-.061,0,.528,5.428.528,5.428h15.907l.617-4.845Z" transform="translate(-120.047 -395.794)" fill="#407bff"/>
            </g>
          </g>
        </g>
      </g>
    </g>
  </g>
</svg>
